<?xml version="1.0" encoding="UTF-8"?>
<svg version="1.1" xmlns="http://www.w3.org/2000/svg" width="1067" height="1067">
<path d="M0 0 C352.11 0 704.22 0 1067 0 C1067 352.11 1067 704.22 1067 1067 C714.89 1067 362.78 1067 0 1067 C0 714.89 0 362.78 0 0 Z " fill="#F6F6F6" transform="translate(0,0)"/>
<path d="M0 0 C27.06 0 54.12 0 82 0 C82.33 55.44 82.66 110.88 83 168 C88.28841221 156.83557422 93.52351833 145.71570529 98.48657227 134.41381836 C104.51045991 120.70657415 110.69551978 107.08024887 117 93.5 C122.84719757 80.90448279 128.58228938 68.26755211 134.1875 55.5625 C139.42850096 43.6855933 144.7907722 31.87421229 150.3125 20.125 C150.63173431 19.445513 150.95096863 18.766026 151.27987671 18.06594849 C154.12722197 12.01252489 157.00795299 5.98409401 160 0 C188.38 0 216.76 0 246 0 C244.05803895 5.82588314 242.14110004 11.20903321 239.55078125 16.70703125 C239.05622688 17.77338554 239.05622688 17.77338554 238.55168152 18.86128235 C237.84386717 20.3868863 237.13404252 21.91155892 236.42236328 23.43536377 C234.50636228 27.53910833 232.60641787 31.65026363 230.70703125 35.76171875 C230.31633453 36.60694092 229.92563782 37.45216309 229.52310181 38.32299805 C225.42221803 47.21583439 221.45543242 56.16676423 217.5 65.125 C213.2800343 74.67522392 209.02924085 84.19295623 204.48779297 93.59570312 C200.32988384 102.27608193 196.50217413 111.10640508 192.6161499 119.91067505 C185.96623099 134.96211626 179.07646806 149.89735445 172.11962891 164.80908203 C171.72614258 165.65339279 171.33265625 166.49770355 170.92724609 167.36759949 C170.19113748 168.94628759 169.45375583 170.52438299 168.71484375 172.10176086 C168.07435407 173.47462643 167.439064 174.84993661 166.81036377 176.22824097 C166.12490795 177.7269044 165.41541376 179.21453779 164.70068359 180.69946289 C163.09658495 185.96616028 166.02864674 190.60219088 168.25390625 195.31640625 C168.58598587 196.03197189 168.91806549 196.74753754 169.26020813 197.48478699 C169.97925526 199.03341213 170.70060882 200.580968 171.42401123 202.12756348 C173.38196868 206.31513409 175.32173678 210.51110982 177.26171875 214.70703125 C177.66066345 215.56916229 178.05960815 216.43129333 178.47064209 217.31954956 C182.36572519 225.75540412 186.12777925 234.24771806 189.875 242.75 C195.60470106 255.73585312 201.5044933 268.63482716 207.5 281.5 C214.66508804 296.87495284 221.64717864 312.32066764 228.49996948 327.83711243 C228.81064362 328.54055283 229.12131775 329.24399323 229.44140625 329.96875 C229.74523224 330.65692307 230.04905823 331.34509613 230.36209106 332.05412292 C233.59823794 339.3730594 236.91362373 346.65536198 240.26000977 353.92456055 C243 359.89830321 243 359.89830321 243 361 C212.97 361 182.94 361 152 361 C135.41236991 325.61305582 135.41236991 325.61305582 128.3515625 310.26953125 C124.1226148 301.09022714 119.87390682 291.92007862 115.625 282.75 C115.21634705 281.86785828 114.80769409 280.98571655 114.38665771 280.07684326 C110.26460011 271.17971068 106.13863961 262.28449211 101.984375 253.40234375 C101.67321747 252.73685516 101.36205994 252.07136658 101.04147339 251.38571167 C99.6309296 248.36970288 98.21862987 245.35455161 96.80322266 242.34082031 C92.08883902 232.27403878 87.56375591 222.14167979 83 212 C82.67 261.17 82.34 310.34 82 361 C54.94 361 27.88 361 0 361 C0 241.87 0 122.74 0 0 Z " fill="#88181A" transform="translate(57,242)"/>
<path d="M0 0 C17.49 0 34.98 0 53 0 C53 98.01 53 196.02 53 297 C35.51 297 18.02 297 0 297 C-0.33 290.07 -0.66 283.14 -1 276 C-3.02125 277.65 -5.0425 279.3 -7.125 281 C-29.22313247 298.54224543 -53.32707149 304.19186561 -81.23046875 301.80957031 C-107.02945607 298.70507528 -130.3592708 281.96702393 -146.08740234 261.98730469 C-166.4265187 235.17313608 -171.75945713 202.5813195 -168.3125 169.6875 C-164.74193752 145.72779453 -154.82195621 124.54488325 -138 107 C-137.25105469 106.17628906 -136.50210938 105.35257812 -135.73046875 104.50390625 C-119.88582506 87.66076097 -98.17509659 77.71071659 -75.1015625 76.6875 C-62.5683785 76.3441906 -50.92449593 77.0040253 -39 81 C-38.34322266 81.21962402 -37.68644531 81.43924805 -37.00976562 81.66552734 C-22.80516403 86.5800969 -12.70517464 94.2456878 -1 104 C-0.505 52.52 -0.505 52.52 0 0 Z " fill="#000000" transform="translate(748,306)"/>
<path d="M0 0 C2.54305315 2.18290324 5.03879969 4.42039356 7.54370117 6.64697266 C7.87370117 -0.61302734 8.20370117 -7.87302734 8.54370117 -15.35302734 C26.36370117 -15.35302734 44.18370117 -15.35302734 62.54370117 -15.35302734 C62.54370117 55.59697266 62.54370117 126.54697266 62.54370117 199.64697266 C44.72370117 199.64697266 26.90370117 199.64697266 8.54370117 199.64697266 C8.21370117 192.71697266 7.88370117 185.78697266 7.54370117 178.64697266 C5.52245117 180.29697266 3.50120117 181.94697266 1.41870117 183.64697266 C-20.84173138 201.31805738 -44.73001968 206.7459787 -72.7902832 204.45654297 C-93.79541565 201.97522308 -111.08001161 190.34211914 -126.45629883 176.64697266 C-127.1137207 176.07462891 -127.77114258 175.50228516 -128.44848633 174.91259766 C-148.5227096 156.27910811 -159.13072798 127.68481655 -160.61303711 100.8046875 C-161.63416021 70.04271276 -155.50771056 37.56968205 -133.95629883 14.27197266 C-132.14195411 12.37723966 -130.30064396 10.51288908 -128.45629883 8.64697266 C-127.73958008 7.85806641 -127.02286133 7.06916016 -126.28442383 6.25634766 C-94.21336351 -28.22607058 -35.64880186 -29.42096804 0 0 Z " fill="#010101" transform="translate(472.456298828125,403.35302734375)"/>
<path d="M0 0 C0.78439453 -0.00056396 1.56878906 -0.00112793 2.37695312 -0.00170898 C9.9380947 0.13994631 16.54644536 1.99197268 23.3125 5.375 C21.20776033 12.82222429 18.64499159 20.02674982 15.875 27.25 C12.82102042 35.23257732 9.95448061 43.24596775 7.3125 51.375 C-2.4375 48.5 -2.4375 48.5 -4.6875 47.375 C-11.9218828 46.88453337 -16.46535043 48.36115652 -22.6875 52.25 C-31.07418776 59.82724873 -33.95561531 71.12424687 -35.3578949 81.88679504 C-35.59953108 83.71091833 -35.87495333 85.53065072 -36.16957092 87.3469696 C-38.17921445 100.91517391 -38.04041642 114.49688858 -38.1015625 128.1875 C-38.12030432 130.85507161 -38.13978782 133.52262762 -38.1602478 136.19018555 C-38.20666679 142.45116281 -38.24358682 148.71215694 -38.27692068 154.97321606 C-38.31919551 162.81553739 -38.37445924 170.65776103 -38.4296875 178.5 C-38.52793116 192.45827906 -38.60684005 206.41658371 -38.6875 220.375 C-56.1775 220.375 -73.6675 220.375 -91.6875 220.375 C-91.6875 149.425 -91.6875 78.475 -91.6875 5.375 C-76.5075 5.375 -61.3275 5.375 -45.6875 5.375 C-45.1925 16.76 -45.1925 16.76 -44.6875 28.375 C-43.635625 26.828125 -42.58375 25.28125 -41.5 23.6875 C-38.81824152 19.86639723 -36.17050526 16.50970473 -32.6875 13.375 C-32.18863281 12.89546875 -31.68976562 12.4159375 -31.17578125 11.921875 C-22.43008706 3.84892651 -11.82377497 -0.02153001 0 0 Z " fill="#000000" transform="translate(934.6875,382.625)"/>
<path d="M0 0 C1.5128974 1.18740312 2.99319476 2.41755233 4.4375 3.6875 C5.22511719 4.3784375 6.01273438 5.069375 6.82421875 5.78125 C12.19092773 10.81974702 16.02639185 16.18572114 19.4375 22.6875 C19.95183594 23.65429688 20.46617187 24.62109375 20.99609375 25.6171875 C27.57230361 39.62504916 27.99106223 60.40360086 23.41015625 75.0625 C23.08917969 75.92875 22.76820313 76.795 22.4375 77.6875 C22.08558594 78.698125 21.73367188 79.70875 21.37109375 80.75 C18.74154945 87.69269122 15.38514583 93.17293642 10.4375 98.6875 C9.81875 99.38746094 9.2 100.08742188 8.5625 100.80859375 C-1.94738577 112.01772595 -16.26732497 117.61371533 -31.51586914 118.23022461 C-47.57279001 118.36848448 -60.57876441 112.94792761 -72.2109375 102 C-73.37496094 100.8553125 -73.37496094 100.8553125 -74.5625 99.6875 C-75.21476563 99.048125 -75.86703125 98.40875 -76.5390625 97.75 C-88.28297071 85.33353317 -92.24861297 67.87658226 -91.96044922 51.21289062 C-91.26131944 33.62385518 -85.03721745 17.64400379 -72.3984375 5.2421875 C-52.3731641 -12.79710837 -22.54567592 -14.89127978 0 0 Z " fill="#F5F5F5" transform="translate(724.5625,441.3125)"/>
<path d="M0 0 C7.84222999 6.31803482 13.90091859 13.02740602 18.4921875 22.0078125 C19.07613281 23.11769531 19.07613281 23.11769531 19.671875 24.25 C24.16270358 33.46111554 24.86340378 43.33164529 24.8046875 53.4453125 C24.79731567 54.95798706 24.79731567 54.95798706 24.78979492 56.5012207 C24.67621658 63.71140664 24.00765438 70.20185172 21.4921875 77.0078125 C21.151875 78.00683594 20.8115625 79.00585938 20.4609375 80.03515625 C17.68027728 87.48469529 13.80456826 93.13354532 8.4921875 99.0078125 C7.925 99.65621094 7.3578125 100.30460938 6.7734375 100.97265625 C-2.7116246 111.19594252 -16.48830634 116.37115638 -30.2578125 117.24609375 C-47.27861259 117.6888429 -60.69572901 113.07948253 -73.16015625 101.30859375 C-73.93488281 100.54933594 -74.70960938 99.79007813 -75.5078125 99.0078125 C-76.46880859 98.10095703 -76.46880859 98.10095703 -77.44921875 97.17578125 C-89.28653829 85.02068132 -93.05003383 67.08844028 -92.85522461 50.68481445 C-92.31920585 34.06115661 -86.7106799 18.18583576 -74.91015625 6.18359375 C-54.15634561 -12.61294694 -23.52342481 -16.51644721 0 0 Z " fill="#F5F5F5" transform="translate(458.5078125,441.9921875)"/>
<path d="M0 0 C17.82 0 35.64 0 54 0 C54 70.95 54 141.9 54 215 C36.18 215 18.36 215 0 215 C0 144.05 0 73.1 0 0 Z " fill="#010101" transform="translate(979,388)"/>
<path d="M0 0 C8.21479962 5.201155 14.41926925 12.23049959 17.32421875 21.56640625 C19.53002251 32.65504138 17.39989026 42.37662313 11.44140625 51.8359375 C6.32431176 58.49836537 -2.01246888 63.37447398 -10.2421875 64.74609375 C-21.44456364 65.62363607 -30.63611882 64.19055632 -39.65234375 57.2109375 C-46.35719003 51.03325358 -50.66523563 43.20358746 -51.625 34.125 C-51.93832906 23.75380803 -50.28645895 16.25487382 -43.8671875 8.05859375 C-32.0566503 -4.18775663 -15.405502 -7.40891309 0 0 Z " fill="#020202" transform="translate(1023.2421875,304.25390625)"/>
<path d="M0 0 C6.8662693 5.44672599 10.91408613 11.77604525 12.73828125 20.37890625 C13.94524812 31.78909821 12.55964259 43.17907111 6.05078125 52.87890625 C2.032883 57.72703347 -3.36928518 60.41476173 -9.26171875 62.37890625 C-16.56980524 62.94189958 -22.68524031 62.72483388 -29.26171875 59.37890625 C-30.91171875 57.72890625 -32.56171875 56.07890625 -34.26171875 54.37890625 C-34.59171875 66.25890625 -34.92171875 78.13890625 -35.26171875 90.37890625 C-38.56171875 90.37890625 -41.86171875 90.37890625 -45.26171875 90.37890625 C-45.26171875 60.01890625 -45.26171875 29.65890625 -45.26171875 -1.62109375 C-41.96171875 -1.62109375 -38.66171875 -1.62109375 -35.26171875 -1.62109375 C-34.93171875 1.34890625 -34.60171875 4.31890625 -34.26171875 7.37890625 C-33.25109375 6.28578125 -32.24046875 5.19265625 -31.19921875 4.06640625 C-23.17412513 -3.79945933 -10.00645462 -6.14957703 0 0 Z " fill="#851C1E" transform="translate(1023.26171875,657.62109375)"/>
<path d="M0 0 C0.70632568 0.00563965 1.41265137 0.0112793 2.14038086 0.01708984 C10.09941614 0.20177969 16.70935168 1.7206112 22.546875 7.3671875 C30.87123327 17.23749803 31.37534758 27.61815243 30.44726562 40.00195312 C29.92508398 44.64662142 28.71833811 48.39760979 26.1875 52.3125 C25.56875 53.28509766 25.56875 53.28509766 24.9375 54.27734375 C20.53241263 60.1966799 13.4230971 64.00772019 6.1875 65.3125 C-4.65764188 66.08264395 -12.72043008 65.33794575 -21.5625 58.6875 C-27.41533598 53.35189139 -30.56840435 45.56539735 -31.015625 37.7734375 C-31.20923291 27.69966024 -30.87660869 18.19389872 -24.39453125 9.91015625 C-17.53259582 2.98044862 -9.67898012 -0.08059101 0 0 Z " fill="#851E20" transform="translate(860.8125,654.6875)"/>
<path d="M0 0 C0 3.96 0 7.92 0 12 C-0.96421875 11.65066406 -1.9284375 11.30132813 -2.921875 10.94140625 C-4.19788003 10.48166914 -5.47392374 10.02203937 -6.75 9.5625 C-7.38421875 9.33240234 -8.0184375 9.10230469 -8.671875 8.86523438 C-18.7700482 5.23620338 -29.65659771 3.89870386 -39.6875 8.6171875 C-48.81383102 14.07448679 -53.6739952 21.0219856 -57 31 C-57.86701362 41.33360651 -58.66583217 52.93466853 -53 62 C-52.5875 62.721875 -52.175 63.44375 -51.75 64.1875 C-47.71515411 70.42317091 -42.02603538 73.43123746 -35.03515625 75.61328125 C-25.76939046 77.3739546 -16.95940454 75.33723597 -8 73 C-8 64.75 -8 56.5 -8 48 C-14.6 48 -21.2 48 -28 48 C-28 45.03 -28 42.06 -28 39 C-18.1 39 -8.2 39 2 39 C2 52.2 2 65.4 2 79 C-11.63417927 85.81708963 -28.16081246 89.34227892 -43.125 84.375 C-54.20431472 79.52991742 -61.75092189 71.20509154 -67.0546875 60.4921875 C-70.88901858 50.38349648 -70.85694709 34.25288812 -67.03515625 24.15625 C-60.37083302 10.27433896 -51.99856651 2.94766681 -38 -3 C-25.82761998 -6.61835439 -11.55595643 -4.4553085 0 0 Z " fill="#851D1F" transform="translate(771,634)"/>
<path d="M0 0 C4.41993929 3.56813086 7.87301019 8.83777946 8.82421875 14.47265625 C9.54092754 23.69587595 9.61393518 33.69875151 3.3984375 41.19140625 C-1.81262248 45.82345957 -6.83561785 46.94652919 -13.61328125 46.78515625 C-19.23862017 46.09913931 -22.95093192 43.64306783 -26.98828125 39.78515625 C-32.01129997 32.17887077 -33.21231001 24.50694673 -32.17578125 15.47265625 C-30.47023442 8.25453841 -27.38731461 3.52858899 -21.17578125 -0.52734375 C-14.83258821 -4.29897204 -6.28117404 -3.55466036 0 0 Z " fill="#F6F3F3" transform="translate(872.17578125,665.52734375)"/>
<path d="M0 0 C3.3 0 6.6 0 10 0 C10.01401855 1.93649414 10.01401855 1.93649414 10.02832031 3.91210938 C10.06836561 8.72820816 10.13416485 13.54367791 10.20751953 18.359375 C10.23564499 20.43871952 10.25690121 22.51816929 10.27099609 24.59765625 C10.29254238 27.59689892 10.33925276 30.59488745 10.390625 33.59375 C10.39185364 34.51490601 10.39308228 35.43606201 10.39434814 36.38513184 C10.52863387 42.38011867 11.59490019 46.98907177 15 52 C18.33741036 54.96658698 21.41423119 55.55083974 25.87890625 55.33984375 C29.70783428 54.72636909 33.08775318 53.59410221 36 51 C39.92978503 45.10207853 40.59987139 39.76852114 40.609375 32.8125 C40.62591125 31.86938965 40.64244751 30.9262793 40.65948486 29.95458984 C40.70771079 26.96965864 40.72927923 23.98523594 40.75 21 C40.77818093 18.96481852 40.80811131 16.92966046 40.83984375 14.89453125 C40.91346291 9.92972941 40.96319249 4.96520567 41 0 C44.63 0 48.26 0 52 0 C52 20.79 52 41.58 52 63 C48.7 63 45.4 63 42 63 C41.505 59.04 41.505 59.04 41 55 C40.48050781 55.48210938 39.96101562 55.96421875 39.42578125 56.4609375 C38.72839844 57.09257813 38.03101563 57.72421875 37.3125 58.375 C36.62800781 59.00148438 35.94351563 59.62796875 35.23828125 60.2734375 C29.14183869 64.97610349 22.39845435 64.72376184 15 64 C9.66777215 62.44895888 5.88405696 59.8067616 3 55 C0.09173291 48.33238184 -0.40920832 42.26351944 -0.29296875 35.05859375 C-0.28872391 34.05031021 -0.28447906 33.04202667 -0.28010559 32.00318909 C-0.26344683 28.81434284 -0.22581877 25.626152 -0.1875 22.4375 C-0.17243661 20.26237898 -0.15875112 18.08724796 -0.14648438 15.91210938 C-0.1135853 10.60782423 -0.06189243 5.30402285 0 0 Z " fill="#892426" transform="translate(906,656)"/>
<path d="M0 0 C4.14975302 2.8402754 6.25913927 6.51024568 7.7578125 11.203125 C8.09281044 14.12317817 8.13887458 17.01574327 8.1328125 19.953125 C8.13039551 21.15811646 8.13039551 21.15811646 8.12792969 22.38745117 C8.00358573 28.39314219 7.15506346 33.13067787 3.7578125 38.203125 C3.1390625 39.151875 2.5203125 40.100625 1.8828125 41.078125 C-1.98863822 44.94957572 -5.65079058 46.39698707 -11.0546875 46.765625 C-16.83763856 46.5650098 -21.24697819 44.36933549 -25.2421875 40.203125 C-28.8952197 34.72357671 -29.90255828 29.83429767 -29.7421875 23.328125 C-29.73010254 22.54091064 -29.71801758 21.75369629 -29.70556641 20.94262695 C-29.47174012 14.06884279 -28.46693881 7.9049628 -23.81640625 2.56640625 C-16.59990116 -3.94150144 -8.30523257 -4.62487461 0 0 Z " fill="#F6F2F2" transform="translate(1017.2421875,665.796875)"/>
<path d="M0 0 C1.34771484 -0.00386719 1.34771484 -0.00386719 2.72265625 -0.0078125 C4.9375 0.125 4.9375 0.125 5.9375 1.125 C6.00955511 2.81108966 6.02136068 4.50000659 6 6.1875 C5.99097656 7.10660156 5.98195313 8.02570312 5.97265625 8.97265625 C5.96105469 9.68292969 5.94945312 10.39320313 5.9375 11.125 C5.35742188 10.96773437 4.77734375 10.81046875 4.1796875 10.6484375 C-1.10599529 9.41449762 -4.64905896 9.30955324 -9.3125 12 C-18.09351216 20.70981477 -16.72422138 33.86411045 -16.8125 45.25 C-16.84070057 47.08336104 -16.87063361 48.9166963 -16.90234375 50.75 C-16.97572314 55.20828665 -17.02559313 59.66626836 -17.0625 64.125 C-20.3625 64.125 -23.6625 64.125 -27.0625 64.125 C-27.0625 43.335 -27.0625 22.545 -27.0625 1.125 C-23.7625 1.125 -20.4625 1.125 -17.0625 1.125 C-16.7325 4.425 -16.4025 7.725 -16.0625 11.125 C-15.505625 10.2175 -14.94875 9.31 -14.375 8.375 C-10.39711038 2.78445243 -6.82279216 -0.01963393 0 0 Z " fill="#841A1B" transform="translate(819.0625,654.875)"/>
<path d="M0 0 C3.3 0 6.6 0 10 0 C10.14279773 7.06582893 10.28520451 14.13166559 10.42724609 21.19750977 C10.47564065 23.60213434 10.52414277 26.00675675 10.57275391 28.41137695 C10.64253444 31.86408944 10.71193043 35.31680948 10.78125 38.76953125 C10.80312378 39.84773636 10.82499756 40.92594147 10.84753418 42.03681946 C10.86755493 43.03763046 10.88757568 44.03844147 10.90820312 45.06958008 C10.93485046 46.39195427 10.93485046 46.39195427 10.96203613 47.74104309 C10.99149329 49.49382689 11 51.24696869 11 53 C12.32 53.66 13.64 54.32 15 55 C14.67 55.99 14.34 56.98 14 58 C13.34 58 12.68 58 12 58 C11.67 58.66 11.34 59.32 11 60 C7.84965145 59.42720935 5.65106175 58.92081631 3.74609375 56.2265625 C1.2486947 51.26862638 -0.12884722 46.90038777 -0.11352539 41.32324219 C-0.11341209 39.94226349 -0.11341209 39.94226349 -0.11329651 38.53338623 C-0.10813522 37.54783752 -0.10297394 36.56228882 -0.09765625 35.546875 C-0.0962413 34.53151672 -0.09482635 33.51615845 -0.09336853 32.47003174 C-0.08777516 29.22999108 -0.07522385 25.99001975 -0.0625 22.75 C-0.05748414 20.55208433 -0.05292139 18.35416758 -0.04882812 16.15625 C-0.0378079 10.77080666 -0.02054778 5.38541508 0 0 Z " fill="#841A1C" transform="translate(906,656)"/>
<path d="M0 0 C2.90092502 2.90092502 3.55461795 3.96517325 4.6875 7.6875 C4.93886719 8.49574219 5.19023437 9.30398438 5.44921875 10.13671875 C5.63097656 10.75160156 5.81273437 11.36648438 6 12 C5.34 12 4.68 12 4 12 C3.505 11.01 3.505 11.01 3 10 C2.34 10 1.68 10 1 10 C1.33 56.53 1.66 103.06 2 151 C-2.32422917 151.86484583 -6.10050537 152.10417722 -10.45239258 152.02172852 C-11.1846405 152.01212097 -11.91688843 152.00251343 -12.67132568 151.99261475 C-15.07916321 151.95977021 -17.48681095 151.91938312 -19.89453125 151.87890625 C-21.5688969 151.85459089 -23.24326948 151.83074805 -24.91764832 151.80735779 C-29.31533724 151.74465769 -33.71290293 151.67555148 -38.11047363 151.60510254 C-42.601587 151.53429167 -47.09278744 151.46955113 -51.58398438 151.40429688 C-60.38941937 151.27546604 -69.19473341 151.13986619 -78 151 C-78 150.67 -78 150.34 -78 150 C-52.26 150 -26.52 150 0 150 C0 100.5 0 51 0 0 Z " fill="#FEEBEB" transform="translate(139,453)"/>
<path d="M0 0 C3.39028964 3.87461673 3.99338074 6.6490153 6 12 C-24.03 12 -54.06 12 -85 12 C-85 11.34 -85 10.68 -85 10 C-55.96 10 -26.92 10 3 10 C3 9.01 3 8.02 3 7 C2.34 7 1.68 7 1 7 C0.505 3.535 0.505 3.535 0 0 Z " fill="#752224" transform="translate(294,591)"/>
<path d="M0 0 C0.88042969 0.00644531 1.76085937 0.01289062 2.66796875 0.01953125 C4.8125 0.1875 4.8125 0.1875 5.8125 1.1875 C5.88455511 2.87358966 5.89636068 4.56250659 5.875 6.25 C5.86597656 7.16910156 5.85695313 8.08820312 5.84765625 9.03515625 C5.83605469 9.74542969 5.82445312 10.45570313 5.8125 11.1875 C5.23242188 11.03023437 4.65234375 10.87296875 4.0546875 10.7109375 C0.59907361 9.90422624 -2.69749853 9.55661512 -6.1875 10.1875 C-8.496286 11.63555438 -10.19689233 13.29168318 -12.1875 15.1875 C-12.8475 15.1875 -13.5075 15.1875 -14.1875 15.1875 C-14.1875 14.5275 -14.1875 13.8675 -14.1875 13.1875 C-15.1775 13.5175 -16.1675 13.8475 -17.1875 14.1875 C-15.56319949 8.82730833 -12.05873796 4.02173552 -7.31640625 0.9921875 C-4.75808512 0.02518905 -2.72875043 -0.04433716 0 0 Z " fill="#812427" transform="translate(819.1875,654.8125)"/>
<path d="M0 0 C0.33 0 0.66 0 1 0 C1 50.49 1 100.98 1 153 C2.65 152.67 4.3 152.34 6 152 C4.68938409 156.23429756 3.05643741 160.07407404 1 164 C0.67 164 0.34 164 0 164 C0 109.88 0 55.76 0 0 Z " fill="#FFEDED" transform="translate(139,248)"/>
<path d="M0 0 C0 3.61029169 -0.96092582 6.55806676 -2 10 C-0.68 10.33 0.64 10.66 2 11 C2.33 9.02 2.66 7.04 3 5 C4.32 5.33 5.64 5.66 7 6 C7 5.01 7 4.02 7 3 C8.98 3 10.96 3 13 3 C12.34 3.474375 11.68 3.94875 11 4.4375 C6.91137382 7.92986819 3.50324139 11.93171968 0 16 C-0.66 15.01 -1.32 14.02 -2 13 C-3.88370471 11.6830333 -3.88370471 11.6830333 -6 11 C-6.99 11.33 -7.98 11.66 -9 12 C-9.80563638 14.10584438 -9.80563638 14.10584438 -10.1875 16.5625 C-10.34605469 17.38878906 -10.50460937 18.21507812 -10.66796875 19.06640625 C-10.77753906 19.70449219 -10.88710938 20.34257813 -11 21 C-10.34 21.33 -9.68 21.66 -9 22 C-10.65 23.32 -12.3 24.64 -14 26 C-15.28051365 23.04384278 -14.97087222 21.91982455 -13.84765625 18.828125 C-10.11743129 11.35135025 -6.5201729 5.45323552 0 0 Z " fill="#832427" transform="translate(718,639)"/>
<path d="M0 0 C2.15064528 0.46085256 3.89885803 0.94303996 5.82421875 2.02734375 C8.40080186 3.17917354 10.25173839 3.23413405 13.0625 3.1875 C13.91972656 3.18105469 14.77695312 3.17460938 15.66015625 3.16796875 C18.15477968 3.08590034 18.15477968 3.08590034 21 2 C21 2.66 21 3.32 21 4 C18.04335481 5.4783226 15.25770263 5.06032783 12 5 C11.67 5.99 11.34 6.98 11 8 C10.34 8 9.68 8 9 8 C9.33 8.66 9.66 9.32 10 10 C12.58605332 10.4683265 12.58605332 10.4683265 15.5625 10.625 C16.57441406 10.69976563 17.58632813 10.77453125 18.62890625 10.8515625 C19.80259766 10.92503906 19.80259766 10.92503906 21 11 C21 11.33 21 11.66 21 12 C6.65672844 12.64544722 6.65672844 12.64544722 1 9 C-1.24743056 6.82973444 -3.17050338 4.52941768 -5 2 C-2.525 2.495 -2.525 2.495 0 3 C0 2.01 0 1.02 0 0 Z " fill="#832325" transform="translate(993,708)"/>
<path d="M0 0 C1.20100342 0.01441132 1.20100342 0.01441132 2.42626953 0.02911377 C5.05592134 0.06192653 7.68539767 0.10232553 10.31494141 0.14282227 C12.14482008 0.16714073 13.97470513 0.19098342 15.80459595 0.21437073 C20.60833025 0.27703986 25.41195084 0.3461547 30.21557617 0.41662598 C35.1223434 0.48746497 40.0291909 0.55218863 44.93603516 0.61743164 C54.55461298 0.7462225 64.17308174 0.88182506 73.79150391 1.02172852 C73.46150391 2.01172852 73.13150391 3.00172852 72.79150391 4.02172852 C72.79150391 3.36172852 72.79150391 2.70172852 72.79150391 2.02172852 C30.22150391 2.51672852 30.22150391 2.51672852 -13.20849609 3.02172852 C-14.85849609 6.65172852 -16.50849609 10.28172852 -18.20849609 14.02172852 C-20.20849609 12.02172852 -20.20849609 12.02172852 -20.33349609 9.39672852 C-20.29224609 8.61297852 -20.25099609 7.82922852 -20.20849609 7.02172852 C-19.21849609 6.69172852 -18.22849609 6.36172852 -17.20849609 6.02172852 C-16.77537109 5.19672852 -16.34224609 4.37172852 -15.89599609 3.52172852 C-14.20849609 1.02172852 -14.20849609 1.02172852 -11.61605835 0.36683655 C-7.72762634 -0.02697258 -3.90128196 -0.06777617 0 0 Z " fill="#FEECEE" transform="translate(230.20849609375,239.978271484375)"/>
<path d="M0 0 C28.38 0 56.76 0 86 0 C85.34 2.31 84.68 4.62 84 7 C83.34 7 82.68 7 82 7 C81.4375 5.0625 81.4375 5.0625 81 3 C81.33 2.67 81.66 2.34 82 2 C55.27 2 28.54 2 1 2 C0.01 4.31 -0.98 6.62 -2 9 C-2.66 8.67 -3.32 8.34 -4 8 C-2.68 5.36 -1.36 2.72 0 0 Z " fill="#772123" transform="translate(217,242)"/>
<path d="M0 0 C0.91007813 0.00902344 1.82015625 0.01804687 2.7578125 0.02734375 C3.45648437 0.03894531 4.15515625 0.05054688 4.875 0.0625 C4.875 2.7025 4.875 5.3425 4.875 8.0625 C0.915 8.0625 -3.045 8.0625 -7.125 8.0625 C-7.125 5.7525 -7.125 3.4425 -7.125 1.0625 C-4.60024538 -0.19987731 -2.81299534 -0.03606404 0 0 Z " fill="#841D1F" transform="translate(819.125,654.9375)"/>
<path d="M0 0 C5.61 0 11.22 0 17 0 C17 8.25 17 16.5 17 25 C15.02 25.66 13.04 26.32 11 27 C11 26.34 11 25.68 11 25 C11.99 25 12.98 25 14 25 C14 17.41 14 9.82 14 2 C7.07 1.505 7.07 1.505 0 1 C0 0.67 0 0.34 0 0 Z " fill="#E9C9C9" transform="translate(746,682)"/>
<path d="M0 0 C0.33 0 0.66 0 1 0 C1.48618537 9.25102727 1.98748325 19.42861627 -4.6015625 26.7890625 C-6.25 28.1875 -6.25 28.1875 -9 30 C-9.33 29.34 -9.66 28.68 -10 28 C-10.66 27.67 -11.32 27.34 -12 27 C-11.0925 26.649375 -10.185 26.29875 -9.25 25.9375 C-5.36758171 23.62298141 -3.70112275 21.07677849 -2 17 C-1.30809211 14.03463268 -0.99936535 11.09384757 -0.75 8.0625 C-0.67265625 7.28326172 -0.5953125 6.50402344 -0.515625 5.70117188 C-0.3292181 3.8021516 -0.16253334 1.90121236 0 0 Z " fill="#F6DFDF" transform="translate(880,680)"/>
<path d="M0 0 C2.09632021 2.51558425 3.54856032 5.05742423 4.9375 8 C6.19618027 10.6335464 6.99533564 11.99573544 9.1875 14 C11.96705618 17.06709648 11.6757133 19.91398757 12 24 C12.33 24.99 12.66 25.98 13 27 C12.34 27 11.68 27 11 27 C9.15744484 23.06675061 7.32755281 19.12773978 5.5 15.1875 C4.97535156 14.06794922 4.45070312 12.94839844 3.91015625 11.79492188 C3.41386719 10.72177734 2.91757813 9.64863281 2.40625 8.54296875 C1.94541016 7.55321045 1.48457031 6.56345215 1.00976562 5.54370117 C0 3 0 3 0 0 Z " fill="#F8E7E4" transform="translate(234,456)"/>
<path d="M0 0 C2.25 2.25 2.25 2.25 4 5 C3.75 7.3125 3.75 7.3125 3 9 C2.01 8.34 1.02 7.68 0 7 C-2.64632287 7.3121764 -2.64632287 7.3121764 -5 8 C-5.66 6.68 -6.32 5.36 -7 4 C-3.375 0 -3.375 0 0 0 Z " fill="#871719" transform="translate(721,702)"/>
<path d="M0 0 C0.33 0 0.66 0 1 0 C1.06058594 0.79664063 1.12117187 1.59328125 1.18359375 2.4140625 C1.68912795 9.01970612 1.68912795 9.01970612 2.6875 15.5625 C3 18 3 18 1 21 C0.34 21 -0.32 21 -1 21 C-2.01866229 22.65532623 -3.01810813 24.32260138 -4 26 C-4.66 26.33 -5.32 26.66 -6 27 C-5.731875 26.34 -5.46375 25.68 -5.1875 25 C-4.795625 24.01 -4.40375 23.02 -4 22 C-3.2265625 20.2984375 -3.2265625 20.2984375 -2.4375 18.5625 C-0.17939687 12.64353269 -0.25509518 6.26302646 0 0 Z " fill="#F0D7D6" transform="translate(891,683)"/>
<path d="M0 0 C0.66 0.33 1.32 0.66 2 1 C-0.97 7.27 -3.94 13.54 -7 20 C-8.10257371 15.58970517 -7.92175941 15.61742948 -6 12 C-6 10.68 -6 9.36 -6 8 C-4.625 5.75 -4.625 5.75 -3 4 C-2.34 4 -1.68 4 -1 4 C-0.67 2.68 -0.34 1.36 0 0 Z " fill="#FAE7E6" transform="translate(177,326)"/>
<path d="M0 0 C0.66 0.33 1.32 0.66 2 1 C1.47731534 3.76276177 0.89130413 6.3260876 0 9 C-0.08178114 10.70016844 -0.10749501 12.40336297 -0.09765625 14.10546875 C-0.09443359 15.08837891 -0.09121094 16.07128906 -0.08789062 17.08398438 C-0.07951172 18.10814453 -0.07113281 19.13230469 -0.0625 20.1875 C-0.05798828 21.22326172 -0.05347656 22.25902344 -0.04882812 23.32617188 C-0.0370401 25.88417266 -0.02058515 28.44205733 0 31 C-1.76222546 27.95066747 -2.25597946 25.7354728 -2.265625 22.2265625 C-2.26820313 21.3190625 -2.27078125 20.4115625 -2.2734375 19.4765625 C-2.26570312 18.53554688 -2.25796875 17.59453125 -2.25 16.625 C-2.25773438 15.69171875 -2.26546875 14.7584375 -2.2734375 13.796875 C-2.25928484 8.80098756 -1.97190626 4.67936485 0 0 Z " fill="#F4D8D7" transform="translate(715,659)"/>
<path d="M0 0 C0.12375 0.598125 0.2475 1.19625 0.375 1.8125 C0.95475985 4.26231348 0.95475985 4.26231348 3 7 C1.71086513 7.67154933 0.41859796 8.33708859 -0.875 9 C-1.59429688 9.37125 -2.31359375 9.7425 -3.0546875 10.125 C-5 11 -5 11 -7 11 C-6.67 9.68 -6.34 8.36 -6 7 C-4.68 7 -3.36 7 -2 7 C-1.67 6.34 -1.34 5.68 -1 5 C-1.66 5 -2.32 5 -3 5 C-3 4.34 -3 3.68 -3 3 C-3.66 2.67 -4.32 2.34 -5 2 C-3.35 1.34 -1.7 0.68 0 0 Z " fill="#82272D" transform="translate(939,709)"/>
<path d="M0 0 C1.67588141 2.51382212 2.94030311 4.82947288 4.1875 7.5625 C4.55230469 8.34753906 4.91710937 9.13257813 5.29296875 9.94140625 C5.52628906 10.62074219 5.75960937 11.30007813 6 12 C5.67 12.66 5.34 13.32 5 14 C0.125 9.375 0.125 9.375 -1 6 C-0.72428861 3.99124558 -0.39764263 1.98821313 0 0 Z " fill="#812428" transform="translate(219,425)"/>
<path d="M0 0 C3.34072178 1.38779449 4.90199421 2.81588196 6.8125 5.875 C7.25207031 6.55304687 7.69164062 7.23109375 8.14453125 7.9296875 C9.16843185 10.40762047 8.90457722 11.52489914 8 14 C7.34 13.67 6.68 13.34 6 13 C5.59270772 10.67843403 5.25561323 8.3431213 5 6 C4.34 6 3.68 6 3 6 C1.375 4.6875 1.375 4.6875 0 3 C0 2.01 0 1.02 0 0 Z " fill="#F6E2DF" transform="translate(871,666)"/>
<path d="M0 0 C-1.31061591 4.23429756 -2.94356259 8.07407404 -5 12 C-5.33 12 -5.66 12 -6 12 C-6.0270043 10.54176788 -6.04639787 9.08339325 -6.0625 7.625 C-6.07410156 6.81289063 -6.08570313 6.00078125 -6.09765625 5.1640625 C-6 3 -6 3 -5 1 C-2 0 -2 0 0 0 Z " fill="#FAE6E5" transform="translate(145,400)"/>
<path d="M0 0 C0.66 0 1.32 0 2 0 C3.65 3.96 5.3 7.92 7 12 C6.01 12.495 6.01 12.495 5 13 C5 12.34 5 11.68 5 11 C4.34 11 3.68 11 3 11 C1.00255949 7.13828168 0 4.44822596 0 0 Z " fill="#892A2E" transform="translate(250,496)"/>
<path d="M0 0 C1.33559822 4.00679467 0.23773294 5.62223423 -1.3125 9.5 C-1.98732422 11.21703125 -1.98732422 11.21703125 -2.67578125 12.96875 C-4 16 -4 16 -6 19 C-6.66 19 -7.32 19 -8 19 C-6.60121198 14.53202662 -4.86369228 10.36177921 -2.875 6.125 C-2.33617187 4.97257812 -1.79734375 3.82015625 -1.2421875 2.6328125 C-0.62730469 1.32957031 -0.62730469 1.32957031 0 0 Z " fill="#852E30" transform="translate(148,393)"/>
<path d="M0 0 C0.66 0.33 1.32 0.66 2 1 C0.24009216 6.91969002 -2.39694605 12.41634992 -5 18 C-5.33 18 -5.66 18 -6 18 C-6 16.35 -6 14.7 -6 13 C-5.34 13 -4.68 13 -4 13 C-3.855625 11.72125 -3.71125 10.4425 -3.5625 9.125 C-3.29357254 6.74307106 -3.07773654 5.15547309 -2 3 C-1.34 3 -0.68 3 0 3 C0 2.01 0 1.02 0 0 Z " fill="#822B2E" transform="translate(245,365)"/>
<path d="M0 0 C12.5 3.5 12.5 3.5 15 6 C8.90932974 6.42004622 5.89183119 6.0566405 1 2 C0.67 1.34 0.34 0.68 0 0 Z " fill="#EED6D2" transform="translate(919,706)"/>
<path d="M0 0 C1.98 0 3.96 0 6 0 C5.29875 0.556875 4.5975 1.11375 3.875 1.6875 C0.88655739 4.09124732 -2.05940238 6.53810432 -5 9 C-4.67 6.69 -4.34 4.38 -4 2 C-2.02 2.495 -2.02 2.495 0 3 C0 2.01 0 1.02 0 0 Z " fill="#862A2F" transform="translate(725,642)"/>
<path d="M0 0 C0.33 0 0.66 0 1 0 C1 2.97 1 5.94 1 9 C-1.31 8.34 -3.62 7.68 -6 7 C-5.02433888 5.83040013 -4.044375 4.66438823 -3.0625 3.5 C-2.51722656 2.8503125 -1.97195313 2.200625 -1.41015625 1.53125 C-0.71212891 0.77328125 -0.71212891 0.77328125 0 0 Z " fill="#E6C7C6" transform="translate(947,710)"/>
<path d="M0 0 C0.66 0.66 1.32 1.32 2 2 C-1.465 9.425 -1.465 9.425 -5 17 C-5.66 16.01 -6.32 15.02 -7 14 C-6.34 14 -5.68 14 -5 14 C-5.020625 13.21625 -5.04125 12.4325 -5.0625 11.625 C-5 9 -5 9 -4 7 C-3.34 7 -2.68 7 -2 7 C-2.33 6.01 -2.66 5.02 -3 4 C-2.34 4 -1.68 4 -1 4 C-0.67 2.68 -0.34 1.36 0 0 Z " fill="#812A2E" transform="translate(294,258)"/>
<path d="M0 0 C1.31096013 1.96644019 2.60342478 3.94536548 3.875 5.9375 C5.74211803 8.62834657 7.60957187 10.78031674 10 13 C8.1875 13.6875 8.1875 13.6875 6 14 C2.50039101 11.76025025 1.38142808 7.74959051 0 4 C0 2.68 0 1.36 0 0 Z " fill="#84292D" transform="translate(841,697)"/>
<path d="M0 0 C0.33 0 0.66 0 1 0 C1 3.96 1 7.92 1 12 C-3.95 10.02 -3.95 10.02 -9 8 C-9 7.67 -9 7.34 -9 7 C-2.25 6.875 -2.25 6.875 0 8 C0 5.36 0 2.72 0 0 Z " fill="#7D3031" transform="translate(770,634)"/>
<path d="M0 0 C2.48355475 4.77606682 4.9385574 9.692787 6 15 C5.01 15.495 5.01 15.495 4 16 C3.1290621 14.27921959 2.27885442 12.54793677 1.4375 10.8125 C0.72400391 9.36810547 0.72400391 9.36810547 -0.00390625 7.89453125 C-1.0953885 4.72281223 -0.96567452 3.16301775 0 0 Z " fill="#F8E0E0" transform="translate(221,423)"/>
<path d="M0 0 C1.07079018 3.21237053 0.95713639 4.9395555 -0.3125 8.0625 C-0.57675781 8.73410156 -0.84101563 9.40570313 -1.11328125 10.09765625 C-2 12 -2 12 -4 15 C-4.66 15 -5.32 15 -6 15 C-4.40109514 9.80355921 -2.25861997 4.93387858 0 0 Z " fill="#F4DDDC" transform="translate(293,264)"/>
<path d="M0 0 C0.33 0 0.66 0 1 0 C1 3.3 1 6.6 1 10 C-0.32 9.67 -1.64 9.34 -3 9 C-4.74886981 8.93375493 -6.50002748 8.91447405 -8.25 8.9375 C-9.58804688 8.95103516 -9.58804688 8.95103516 -10.953125 8.96484375 C-11.62859375 8.97644531 -12.3040625 8.98804688 -13 9 C-12.67 8.34 -12.34 7.68 -12 7 C-8.04 7 -4.08 7 0 7 C0 4.69 0 2.38 0 0 Z " fill="#843B3F" transform="translate(824,656)"/>
<path d="M0 0 C0.66 0.33 1.32 0.66 2 1 C0.35 4.63 -1.3 8.26 -3 12 C-5 10 -5 10 -5.125 7.375 C-5.08375 6.59125 -5.0425 5.8075 -5 5 C-4.01 4.67 -3.02 4.34 -2 4 C-0.79117904 1.99983534 -0.79117904 1.99983534 0 0 Z " fill="#F7E1DE" transform="translate(215,242)"/>
<path d="M0 0 C1.69911188 5.19996655 -0.89923729 8.74053969 -3.1875 13.4375 C-3.455625 13.953125 -3.72375 14.46875 -4 15 C-4.66 15 -5.32 15 -6 15 C-4.40109514 9.80355921 -2.25861997 4.93387858 0 0 Z " fill="#F3DBD9" transform="translate(253,352)"/>
<path d="M0 0 C6.52307692 0.49230769 6.52307692 0.49230769 8.9375 3.0625 C9.288125 3.701875 9.63875 4.34125 10 5 C8.35 5.33 6.7 5.66 5 6 C4.34 5.01 3.68 4.02 3 3 C2.01 2.67 1.02 2.34 0 2 C0 1.34 0 0.68 0 0 Z " fill="#882629" transform="translate(875,660)"/>
<path d="M0 0 C0.66 0 1.32 0 2 0 C2.24954005 1.43410368 2.47392642 2.87260072 2.6875 4.3125 C2.87892578 5.51326172 2.87892578 5.51326172 3.07421875 6.73828125 C3 9 3 9 0 12 C0 8.04 0 4.08 0 0 Z " fill="#F3D8D8" transform="translate(771,634)"/>
<path d="M0 0 C2.97 1.98 2.97 1.98 6 4 C3.64561267 5.42944945 2.51967567 6.08661261 -0.25 5.625 C-0.8275 5.41875 -1.405 5.2125 -2 5 C-1.34 3.35 -0.68 1.7 0 0 Z " fill="#FCEEEC" transform="translate(838,712)"/>
<path d="M0 0 C1.32 0.33 2.64 0.66 4 1 C4 1.66 4 2.32 4 3 C3.01 3 2.02 3 1 3 C0.34 4.32 -0.32 5.64 -1 7 C-2.32 5.35 -3.64 3.7 -5 2 C-2.525 2.495 -2.525 2.495 0 3 C0 2.01 0 1.02 0 0 Z " fill="#86292C" transform="translate(993,708)"/>
<path d="M0 0 C1.8871875 0.0309375 1.8871875 0.0309375 3.8125 0.0625 C3.8125 0.3925 3.8125 0.7225 3.8125 1.0625 C3.23242188 1.17207031 2.65234375 1.28164063 2.0546875 1.39453125 C-2.82247038 2.38444943 -6.73354748 3.78120724 -11.1875 6.0625 C-11.8475 5.7325 -12.5075 5.4025 -13.1875 5.0625 C-8.68197685 1.95869516 -5.52353365 -0.09054973 0 0 Z " fill="#EFCCCC" transform="translate(1007.1875,662.9375)"/>
<path d="M0 0 C1.046875 1.875 1.046875 1.875 2 4 C1.25 6 1.25 6 0 8 C-0.37125 8.7425 -0.7425 9.485 -1.125 10.25 C-1.41375 10.8275 -1.7025 11.405 -2 12 C-2.66 11.01 -3.32 10.02 -4 9 C-3.3203125 6.73828125 -3.3203125 6.73828125 -2.125 4.3125 C-1.73570312 3.50425781 -1.34640625 2.69601563 -0.9453125 1.86328125 C-0.63335937 1.24839844 -0.32140625 0.63351563 0 0 Z " fill="#842C2F" transform="translate(212,252)"/>
<path d="M0 0 C0.66 0.33 1.32 0.66 2 1 C1.34 3.64 0.68 6.28 0 9 C-1.89213369 6.61426621 -3.02391783 4.92824652 -4 2 C-3.01 2 -2.02 2 -1 2 C-0.67 1.34 -0.34 0.68 0 0 Z " fill="#832125" transform="translate(187,544)"/>
<path d="M0 0 C0.99 0.33 1.98 0.66 3 1 C3.12375 1.969375 3.2475 2.93875 3.375 3.9375 C3.684375 5.4534375 3.684375 5.4534375 4 7 C4.66 7.33 5.32 7.66 6 8 C6.33 8.99 6.66 9.98 7 11 C6.01 11 5.02 11 4 11 C3.32880451 9.5437455 2.66318193 8.08492133 2 6.625 C1.62875 5.81289063 1.2575 5.00078125 0.875 4.1640625 C0 2 0 2 0 0 Z " fill="#822628" transform="translate(151,476)"/>
<path d="M0 0 C2 1.8125 2 1.8125 4 4 C4 4.99 4 5.98 4 7 C4.66 7 5.32 7 6 7 C5.67 8.32 5.34 9.64 5 11 C4.15841464 9.73461631 3.32700252 8.46246221 2.5 7.1875 C1.80390625 6.12595703 1.80390625 6.12595703 1.09375 5.04296875 C0 3 0 3 0 0 Z " fill="#852C31" transform="translate(705,694)"/>
<path d="M0 0 C1.4800841 0.11362262 2.95910074 0.24122908 4.4375 0.375 C5.26121094 0.44460938 6.08492187 0.51421875 6.93359375 0.5859375 C7.95646484 0.79089844 7.95646484 0.79089844 9 1 C9.33 1.66 9.66 2.32 10 3 C6.04 3 2.08 3 -2 3 C-1.34 2.01 -0.68 1.02 0 0 Z " fill="#FEEEEE" transform="translate(1007,652)"/>
<path d="M0 0 C4.455 2.97 4.455 2.97 9 6 C8.67 6.66 8.34 7.32 8 8 C5.125 6.8125 5.125 6.8125 2 5 C1.34 3.35 0.68 1.7 0 0 Z " fill="#FBE5E3" transform="translate(989,712)"/>
<path d="M0 0 C0.99 0.33 1.98 0.66 3 1 C2.34 2.98 1.68 4.96 1 7 C-0.32 5.68 -1.64 4.36 -3 3 C-2.34 3 -1.68 3 -1 3 C-0.67 2.01 -0.34 1.02 0 0 Z " fill="#81191B" transform="translate(941,708)"/>
<path d="M0 0 C-0.66 1.65 -1.32 3.3 -2 5 C-2.66 4.67 -3.32 4.34 -4 4 C-4.99 4 -5.98 4 -7 4 C-7.33 3.34 -7.66 2.68 -8 2 C-5.09399739 0.74335022 -3.20395416 0 0 0 Z " fill="#8C3638" transform="translate(736,631)"/>
<path d="M0 0 C0.33 0 0.66 0 1 0 C1.39253254 4.44870215 0.15305957 7.14243493 -2 11 C-2.66 11 -3.32 11 -4 11 C-3.52269162 9.5410574 -3.04308958 8.08286504 -2.5625 6.625 C-2.29566406 5.81289063 -2.02882812 5.00078125 -1.75390625 4.1640625 C-1 2 -1 2 0 0 Z " fill="#F3DFDB" transform="translate(238,385)"/>
<path d="M0 0 C2.31 0 4.62 0 7 0 C5.625 2 5.625 2 4 4 C3.34 4 2.68 4 2 4 C2 3.34 2 2.68 2 2 C1.01 2.33 0.02 2.66 -1 3 C-0.67 2.01 -0.34 1.02 0 0 Z " fill="#88282C" transform="translate(803,666)"/>
<path d="M0 0 C1.65 0 3.3 0 5 0 C5.99 1.98 6.98 3.96 8 6 C7.01 6.495 7.01 6.495 6 7 C1.125 2.25 1.125 2.25 0 0 Z " fill="#F5E4E1" transform="translate(879,659)"/>
<path d="M0 0 C0.33 1.32 0.66 2.64 1 4 C0.34 4 -0.32 4 -1 4 C-1.33 4.99 -1.66 5.98 -2 7 C-3.32 6.67 -4.64 6.34 -6 6 C-4.02 4.02 -2.04 2.04 0 0 Z " fill="#FCEAE8" transform="translate(726,645)"/>
<path d="M0 0 C-0.639375 0.28875 -1.27875 0.5775 -1.9375 0.875 C-4.15206079 1.82823451 -4.15206079 1.82823451 -5 4 C-6.65 3.67 -8.3 3.34 -10 3 C-4.375 -1.3125 -4.375 -1.3125 0 0 Z " fill="#F0DAD9" transform="translate(739,641)"/>
<path d="M0 0 C0.66 0 1.32 0 2 0 C3.42944945 2.35438733 4.08661261 3.48032433 3.625 6.25 C3.41875 6.8275 3.2125 7.405 3 8 C0.37613513 4.93882432 0 4.26826873 0 0 Z " fill="#87272C" transform="translate(194,567)"/>
<path d="M0 0 C0.144375 0.61875 0.28875 1.2375 0.4375 1.875 C0.93152225 4.03258322 0.93152225 4.03258322 2 6 C0.35 5.67 -1.3 5.34 -3 5 C-3 4.34 -3 3.68 -3 3 C-3.66 2.67 -4.32 2.34 -5 2 C-3.35 1.34 -1.7 0.68 0 0 Z " fill="#8E2D31" transform="translate(939,709)"/>
<path d="M0 0 C0.66 0.33 1.32 0.66 2 1 C0.79618552 3.49361571 -0.45428722 5.68143083 -2 8 C-2.66 6.68 -3.32 5.36 -4 4 C-2.68 2.68 -1.36 1.36 0 0 Z " fill="#841719" transform="translate(879,704)"/>
<path d="M0 0 C0.33 0.66 0.66 1.32 1 2 C0.06421005 4.35981813 -0.93347808 6.69631264 -2 9 C-2.66 8.67 -3.32 8.34 -4 8 C-2.87548273 5.0280615 -1.77706209 2.66559313 0 0 Z " fill="#843033" transform="translate(836,666)"/>
<path d="M0 0 C0 1.65 0 3.3 0 5 C-1.875 5.625 -1.875 5.625 -4 6 C-4.66 5.34 -5.32 4.68 -6 4 C-5.34 4 -4.68 4 -4 4 C-4 3.34 -4 2.68 -4 2 C-1 0 -1 0 0 0 Z " fill="#841717" transform="translate(810,661)"/>
<path d="M0 0 C1.65 0.33 3.3 0.66 5 1 C3.71034824 2.37562854 2.37310707 3.70766393 1 5 C0.34 5 -0.32 5 -1 5 C-0.67 3.35 -0.34 1.7 0 0 Z " fill="#822225" transform="translate(1019,713)"/>
<path d="M0 0 C0.66 0.33 1.32 0.66 2 1 C0.8125 3 0.8125 3 -1 5 C-3.6875 5.25 -3.6875 5.25 -6 5 C-4.06745228 2.9754262 -2.36841312 1.57894208 0 0 Z " fill="#DEDEDE" transform="translate(731,593)"/>
<path d="M0 0 C0.66 0 1.32 0 2 0 C0.84414715 3.91211733 -0.35534962 6.8745041 -3 10 C-2.39009109 6.44219804 -1.4216319 3.3171411 0 0 Z " fill="#F7DEDD" transform="translate(158,367)"/>
<path d="M0 0 C0.33 0 0.66 0 1 0 C1.25 5.625 1.25 5.625 -1 9 C-1.66 9 -2.32 9 -3 9 C-2.01 6.03 -1.02 3.06 0 0 Z " fill="#F4E1DE" transform="translate(257,343)"/>
<path d="M0 0 C1.0326802 2.78823655 1.04509293 3.8677274 0.0625 6.75 C-0.288125 7.4925 -0.63875 8.235 -1 9 C-1.66 8.67 -2.32 8.34 -3 8 C-1.125 1.125 -1.125 1.125 0 0 Z " fill="#F2DCD9" transform="translate(261,335)"/>
<path d="M0 0 C0.66 0.99 1.32 1.98 2 3 C1.2884375 4.175625 1.2884375 4.175625 0.5625 5.375 C-0.33898023 6.88948678 -1.21179485 8.4235897 -2 10 C-2.66 9.67 -3.32 9.34 -4 9 C-2.68 6.03 -1.36 3.06 0 0 Z " fill="#F3DCDB" transform="translate(270,315)"/>
<path d="M0 0 C0.66 0.33 1.32 0.66 2 1 C0.02 5.455 0.02 5.455 -2 10 C-3 6 -3 6 -2.125 3.875 C-1.75375 3.25625 -1.3825 2.6375 -1 2 C-0.67 1.34 -0.34 0.68 0 0 Z " fill="#F6E0DE" transform="translate(205,264)"/>
<path d="M0 0 C0.99 0.33 1.98 0.66 3 1 C2.34 2.65 1.68 4.3 1 6 C0.34 6 -0.32 6 -1 6 C-1.625 4.125 -1.625 4.125 -2 2 C-1.34 1.34 -0.68 0.68 0 0 Z " fill="#842326" transform="translate(300,243)"/>
</svg>
