<svg xmlns="http://www.w3.org/2000/svg" version="1.0" viewBox="0 0 2851 2017"><path fill="#740000" fill-opacity=".1" d="M897.5 514.2c-.3.7-.4 87.2-.3 192.3l.3 191 .5-192.3c.3-105.7.4-192.2.2-192.2-.1 0-.5.6-.7 1.2m50.5 91.6.5 92.7.3-91.9c.1-50.6-.1-92.3-.5-92.7-.5-.5-.6 40.9-.3 91.9m.5 218.2c0 40.4.1 57 .2 36.7.2-20.2.2-53.2 0-73.5-.1-20.2-.2-3.6-.2 36.8"/><path fill="#740000" fill-opacity=".2" d="M910.8 513.7c6.7.2 17.7.2 24.5 0 6.7-.1 1.2-.3-12.3-.3s-19 .2-12.2.3m200.5 0c8.7.2 22.7.2 31 0 8.4-.1 1.3-.3-15.8-.3-17 0-23.9.2-15.2.3"/><path fill="#740000" fill-opacity=".6" d="M898.5 705.5c0 105.6.1 148.7.2 95.7.2-53 .2-139.4 0-192-.1-52.6-.2-9.3-.2 96.3m49-99.5c0 50.9.1 71.7.2 46.2.2-25.4.2-67 0-92.5-.1-25.4-.2-4.6-.2 46.3m0 218c0 40.4.1 57 .2 36.7.2-20.2.2-53.2 0-73.5-.1-20.2-.2-3.6-.2 36.8"/><path fill="#740000" d="M899 705.5V897h48V750.5l18-20.5c9.8-11.3 18.4-20.5 19.1-20.5.9 0 120.9 177.8 125.8 186.3.5 1 7 1.2 28.8 1l28.1-.3-73.9-109.4c-40.7-60.2-73.9-110-73.7-110.7s6.1-8.2 13.3-16.6c7.1-8.4 37.8-44.7 68.2-80.6L1156 514l-29.8.1h-29.7l-42 52c-71.2 88.2-84.7 105.1-94.9 119.3-5.4 7.5-10.5 13.6-11.2 13.6-1.2 0-1.4-14.9-1.4-92.5V514h-48z"/><path fill="#740000" fill-opacity=".9" d="M1150.9 519.7c-1.3 1.6-1.2 1.7.4.4.9-.7 1.7-1.5 1.7-1.7 0-.8-.8-.3-2.1 1.3m-5 6c-1.3 1.6-1.2 1.7.4.4.9-.7 1.7-1.5 1.7-1.7 0-.8-.8-.3-2.1 1.3m-64 6c-1.3 1.6-1.2 1.7.4.4.9-.7 1.7-1.5 1.7-1.7 0-.8-.8-.3-2.1 1.3m58 1c-1.3 1.6-1.2 1.7.4.4.9-.7 1.7-1.5 1.7-1.7 0-.8-.8-.3-2.1 1.3m-11 13c-1.3 1.6-1.2 1.7.4.4s2.1-2.1 1.3-2.1c-.2 0-1 .8-1.7 1.7m-64 7c-1.3 1.6-1.2 1.7.4.4.9-.7 1.7-1.5 1.7-1.7 0-.8-.8-.3-2.1 1.3m53 6c-1.3 1.6-1.2 1.7.4.4.9-.7 1.7-1.5 1.7-1.7 0-.8-.8-.3-2.1 1.3m-11 13c-1.3 1.6-1.2 1.7.4.4.9-.7 1.7-1.5 1.7-1.7 0-.8-.8-.3-2.1 1.3m-59 2c-1.3 1.6-1.2 1.7.4.4.9-.7 1.7-1.5 1.7-1.7 0-.8-.8-.3-2.1 1.3m53 5c-1.3 1.6-1.2 1.7.4.4.9-.7 1.7-1.5 1.7-1.7 0-.8-.8-.3-2.1 1.3m-5 6c-1.3 1.6-1.2 1.7.4.4.9-.7 1.7-1.5 1.7-1.7 0-.8-.8-.3-2.1 1.3m-6 7c-1.3 1.6-1.2 1.7.4.4.9-.7 1.7-1.5 1.7-1.7 0-.8-.8-.3-2.1 1.3m-59 3c-1.3 1.6-1.2 1.7.4.4.9-.7 1.7-1.5 1.7-1.7 0-.8-.8-.3-2.1 1.3m54 3c-1.3 1.6-1.2 1.7.4.4.9-.7 1.7-1.5 1.7-1.7 0-.8-.8-.3-2.1 1.3m-6 7c-1.3 1.6-1.2 1.7.4.4s2.1-2.1 1.3-2.1c-.2 0-1 .8-1.7 1.7m-65 11c-1.3 1.6-1.2 1.7.4.4s2.1-2.1 1.3-2.1c-.2 0-1 .8-1.7 1.7m54 2c-1.3 1.6-1.2 1.7.4.4s2.1-2.1 1.3-2.1c-.2 0-1 .8-1.7 1.7m-11 13c-1.3 1.6-1.2 1.7.4.4.9-.7 1.7-1.5 1.7-1.7 0-.8-.8-.3-2.1 1.3m-60 6c-1.3 1.6-1.2 1.7.4.4s2.1-2.1 1.3-2.1c-.2 0-1 .8-1.7 1.7m49 7c-1.3 1.6-1.2 1.7.4.4.9-.7 1.7-1.5 1.7-1.7 0-.8-.8-.3-2.1 1.3m-6 7c-1.3 1.6-1.2 1.7.4.4s2.1-2.1 1.3-2.1c-.2 0-1 .8-1.7 1.7m-5 6c-1.3 1.6-1.2 1.7.4.4s2.1-2.1 1.3-2.1c-.2 0-1 .8-1.7 1.7m-6 7c-1.3 1.6-1.2 1.7.4.4.9-.7 1.7-1.5 1.7-1.7 0-.8-.8-.3-2.1 1.3m-5 6c-1.3 1.6-1.2 1.7.4.4s2.1-2.1 1.3-2.1c-.2 0-1 .8-1.7 1.7m-44 43c-1.3 1.6-1.2 1.7.4.4s2.1-2.1 1.3-2.1c-.2 0-1 .8-1.7 1.7m-7 8c-1.3 1.6-1.2 1.7.4.4s2.1-2.1 1.3-2.1c-.2 0-1 .8-1.7 1.7m-7 8c-1.3 1.6-1.2 1.7.4.4s2.1-2.1 1.3-2.1c-.2 0-1 .8-1.7 1.7m-6.5 7.5-1.9 2.3 2.3-1.9c1.2-1.1 2.2-2.1 2.2-2.3 0-.8-.8-.2-2.6 1.9m-7 8-1.9 2.3 2.3-1.9c2.1-1.8 2.7-2.6 1.9-2.6-.2 0-1.2 1-2.3 2.2"/><path fill="#740000" fill-opacity=".8" d="M982.5 710c-.3.6.1.7.9.4 1.8-.7 2.1-1.4.7-1.4-.6 0-1.3.4-1.6 1"/><path fill-opacity=".1" d="M1821.1 634.6c0 1.1.3 1.4.6.6.3-.7.2-1.6-.1-1.9-.3-.4-.6.2-.5 1.3M1333.4 713c0 9.6.2 13.6.3 8.7.2-4.8.2-12.6 0-17.5-.1-4.8-.3-.8-.3 8.8m332.1 83.5c0 55.5.1 78.4.2 50.8.2-27.6.2-73 0-101-.1-27.9-.2-5.4-.2 50.2m120 0c0 55.5.1 78.4.2 50.8.2-27.6.2-73 0-101-.1-27.9-.2-5.4-.2 50.2m-343.1-78.3-1.9 2.3 2.3-1.9c2.1-1.8 2.7-2.6 1.9-2.6-.2 0-1.2 1-2.3 2.2m-6 6-1.9 2.3 2.3-1.9c2.1-1.8 2.7-2.6 1.9-2.6-.2 0-1.2 1-2.3 2.2m-232.5 11.5c-1.3 1.6-1.2 1.7.4.4s2.1-2.1 1.3-2.1c-.2 0-1 .8-1.7 1.7m363.1-.4c0 .2 1.5 1.6 3.3 3.3l3.2 2.9-2.9-3.3c-2.8-3-3.6-3.7-3.6-2.9m-416.8 55.2c0 1.6.2 2.2.5 1.2.2-.9.2-2.3 0-3-.3-.6-.5.1-.5 1.8m544 0c0 1.6.2 2.2.5 1.2.2-.9.2-2.3 0-3-.3-.6-.5.1-.5 1.8m-258 2.5c0 1.9.2 2.7.5 1.7.2-.9.2-2.5 0-3.5-.3-.9-.5-.1-.5 1.8m157.1 4c0 3 .2 4.3.4 2.7.2-1.5.2-3.9 0-5.5-.2-1.5-.4-.2-.4 2.8m-157.1 3c0 1.9.2 2.7.5 1.7.2-.9.2-2.5 0-3.5-.3-.9-.5-.1-.5 1.8m-286 1.5c0 1.6.2 2.2.5 1.2.2-.9.2-2.3 0-3-.3-.6-.5.1-.5 1.8m163.7 51.2c-1.3 1.6-1.2 1.7.4.4.9-.7 1.7-1.5 1.7-1.7 0-.8-.8-.3-2.1 1.3m-4 4c-1.3 1.6-1.2 1.7.4.4.9-.7 1.7-1.5 1.7-1.7 0-.8-.8-.3-2.1 1.3m23.5 24.3c0 9.1.2 12.8.3 8.2.2-4.5.2-11.9 0-16.5-.1-4.5-.3-.8-.3 8.3m250.5-8.3-2.4 2.8 2.8-2.4c2.5-2.3 3.2-3.1 2.4-3.1-.2 0-1.4 1.2-2.8 2.7"/><path fill-opacity=".3" d="M1618.5 757.5c0 77 .1 108.4.2 69.7.2-38.7.2-101.7 0-140-.1-38.3-.2-6.7-.2 70.3m-441.6-31.8c-1.3 1.6-1.2 1.7.4.4s2.1-2.1 1.3-2.1c-.2 0-1 .8-1.7 1.7m537 2-2.4 2.8 2.8-2.4c2.5-2.3 3.2-3.1 2.4-3.1-.2 0-1.4 1.2-2.8 2.7m-254.5 10.5-2.9 3.3 3.3-2.9c1.7-1.7 3.2-3.1 3.2-3.3 0-.8-.8-.1-3.6 2.9m-147.9-.2c1 1.1 2 2 2.3 2s-.3-.9-1.3-2-2-2-2.3-2 .3.9 1.3 2m382.6 45.6c0 1.1.3 1.4.6.6.3-.7.2-1.6-.1-1.9-.3-.4-.6.2-.5 1.3m-284.9 3.4c0 1.4.2 1.9.5 1.2.2-.6.2-1.8 0-2.5-.3-.6-.5-.1-.5 1.3m183.9.6c0 1.1.3 1.4.6.6.3-.7.2-1.6-.1-1.9-.3-.4-.6.2-.5 1.3m-257.8 9.4c0 3.6.2 5 .4 3.2.2-1.7.2-4.7 0-6.5-.2-1.7-.4-.3-.4 3.3m-158-1c0 2.5.2 3.5.4 2.2.2-1.2.2-3.2 0-4.5-.2-1.2-.4-.2-.4 2.3m516 8c0 2.5.2 3.5.4 2.2.2-1.2.2-3.2 0-4.5-.2-1.2-.4-.2-.4 2.3m-284.1 1c0 1.4.2 1.9.5 1.2.2-.6.2-1.8 0-2.5-.3-.6-.5-.1-.5 1.3m30.3 67c2.1 2.2 4.1 4 4.4 4s-1.3-1.8-3.4-4-4.1-4-4.4-4 1.3 1.8 3.4 4"/><path fill-opacity=".6" d="M1820.1 634.6c0 1.1.3 1.4.6.6.3-.7.2-1.6-.1-1.9-.3-.4-.6.2-.5 1.3m-485.9 78.7c-.2 13.9-.5 17.7-1.4 17.1-1-.5-1-.4-.1.6.7.8 1.5 1.1 1.8.8s.4-8.6.2-18.4l-.2-17.9zm332.3 83.2c0 55.5.1 78.4.2 50.8.2-27.6.2-73 0-101-.1-27.9-.2-5.4-.2 50.2m120 0c0 55.5.1 78.4.2 50.8.2-27.6.2-73 0-101-.1-27.9-.2-5.4-.2 50.2m-343.1-78.3-1.9 2.3 2.3-1.9c2.1-1.8 2.7-2.6 1.9-2.6-.2 0-1.2 1-2.3 2.2m-6 6-1.9 2.3 2.3-1.9c2.1-1.8 2.7-2.6 1.9-2.6-.2 0-1.2 1-2.3 2.2m130.6 11.1c0 .2 1.5 1.6 3.3 3.3l3.2 2.9-2.9-3.3c-2.8-3-3.6-3.7-3.6-2.9m-416.8 55.2c0 1.6.2 2.2.5 1.2.2-.9.2-2.3 0-3-.3-.6-.5.1-.5 1.8m542 0c0 1.6.2 2.2.5 1.2.2-.9.2-2.3 0-3-.3-.6-.5.1-.5 1.8m-258 2.5c0 1.9.2 2.7.5 1.7.2-.9.2-2.5 0-3.5-.3-.9-.5-.1-.5 1.8m159.1 4c0 3 .2 4.3.4 2.7.2-1.5.2-3.9 0-5.5-.2-1.5-.4-.2-.4 2.8m-159.1 3c0 1.9.2 2.7.5 1.7.2-.9.2-2.5 0-3.5-.3-.9-.5-.1-.5 1.8m-284 1.5c0 1.6.2 2.2.5 1.2.2-.9.2-2.3 0-3-.3-.6-.5.1-.5 1.8m163.7 51.2c-1.3 1.6-1.2 1.7.4.4.9-.7 1.7-1.5 1.7-1.7 0-.8-.8-.3-2.1 1.3m-4 4c-1.3 1.6-1.2 1.7.4.4.9-.7 1.7-1.5 1.7-1.7 0-.8-.8-.3-2.1 1.3m21.6 7.4c-.5.8-.4 1 .3.5.9-.5 1.3 3.7 1.4 16.1l.2 16.8.3-16.4c.3-15.3-.3-20.1-2.2-17m250.9 8.1-1.9 2.3 2.3-1.9c2.1-1.8 2.7-2.6 1.9-2.6-.2 0-1.2 1-2.3 2.2"/><path fill-opacity=".8" d="M1617.5 757.5c0 77 .1 108.4.2 69.7.2-38.7.2-101.7 0-140-.1-38.3-.2-6.7-.2 70.3m-439.6-31.8c-1.3 1.6-1.2 1.7.4.4s2.1-2.1 1.3-2.1c-.2 0-1 .8-1.7 1.7m535 2-2.4 2.8 2.8-2.4c2.5-2.3 3.2-3.1 2.4-3.1-.2 0-1.4 1.2-2.8 2.7m-254 10-3.4 3.8 3.8-3.4c2-1.9 3.7-3.6 3.7-3.8 0-.8-.8 0-4.1 3.4m-146.9-.2c1.3 1.4 2.6 2.5 2.8 2.5.3 0-.5-1.1-1.8-2.5s-2.6-2.5-2.8-2.5c-.3 0 .5 1.1 1.8 2.5m381.1 46.1c0 1.1.3 1.4.6.6.3-.7.2-1.6-.1-1.9-.3-.4-.6.2-.5 1.3m-282.9 3.4c0 1.4.2 1.9.5 1.2.2-.6.2-1.8 0-2.5-.3-.6-.5-.1-.5 1.3m183.9.6c0 1.1.3 1.4.6.6.3-.7.2-1.6-.1-1.9-.3-.4-.6.2-.5 1.3m-257.8 9.4c0 3.6.2 5 .4 3.2.2-1.7.2-4.7 0-6.5-.2-1.7-.4-.3-.4 3.3m-160-1c0 2.5.2 3.5.4 2.2.2-1.2.2-3.2 0-4.5-.2-1.2-.4-.2-.4 2.3m516 8c0 2.5.2 3.5.4 2.2.2-1.2.2-3.2 0-4.5-.2-1.2-.4-.2-.4 2.3m-282.1 1c0 1.4.2 1.9.5 1.2.2-.6.2-1.8 0-2.5-.3-.6-.5-.1-.5 1.3m30.3 67c2.1 2.2 4.1 4 4.4 4s-1.3-1.8-3.4-4-4.1-4-4.4-4 1.3 1.8 3.4 4"/><path fill-opacity=".9" d="M1813 619.5c1.3 1.4 2.6 2.5 2.8 2.5.3 0-.5-1.1-1.8-2.5s-2.6-2.5-2.8-2.5c-.3 0 .5 1.1 1.8 2.5m-.1 30.2-2.4 2.8 2.8-2.4c2.5-2.3 3.2-3.1 2.4-3.1-.2 0-1.4 1.2-2.8 2.7M1706 709.5c-2.4 2.5-4.2 4.5-3.9 4.5s2.5-2 4.9-4.5 4.2-4.5 3.9-4.5-2.5 2-4.9 4.5m-515.1 4.2c-1.3 1.6-1.2 1.7.4.4.9-.7 1.7-1.5 1.7-1.7 0-.8-.8-.3-2.1 1.3m256 2c-1.3 1.6-1.2 1.7.4.4s2.1-2.1 1.3-2.1c-.2 0-1 .8-1.7 1.7m132.6 3.3c2.7 2.7 5.1 5 5.4 5s-1.7-2.3-4.4-5c-2.7-2.8-5.1-5-5.4-5s1.7 2.2 4.4 5m-258.5-.5c1.9 1.9 3.6 3.5 3.9 3.5s-1-1.6-2.9-3.5-3.6-3.5-3.9-3.5 1 1.6 2.9 3.5m-138.6 2.7-2.9 3.3 3.3-2.9c1.7-1.7 3.2-3.1 3.2-3.3 0-.8-.8-.1-3.6 2.9m252.5 6.5c-1.3 1.6-1.2 1.7.4.4.9-.7 1.7-1.5 1.7-1.7 0-.8-.8-.3-2.1 1.3m-102.2 4.4c.7.7 1.5 1 1.8.7s-.2-.9-1.2-1.2c-1.4-.6-1.5-.5-.6.5m-25.7.3c0 .2.8 1 1.8 1.7 1.5 1.3 1.6 1.2.3-.4s-2.1-2.1-2.1-1.3m-107.1 5.3c-1.3 1.6-1.2 1.7.4.4s2.1-2.1 1.3-2.1c-.2 0-1 .8-1.7 1.7m116.6 4.3c1 1.1 2 2 2.3 2s-.3-.9-1.3-2-2-2-2.3-2 .3.9 1.3 2m137.4.7c-1.3 1.6-1.2 1.7.4.4s2.1-2.1 1.3-2.1c-.2 0-1 .8-1.7 1.7m122.1.7c0 .2.8 1 1.8 1.7 1.5 1.3 1.6 1.2.3-.4s-2.1-2.1-2.1-1.3M1197.5 852c1 1.1 2 2 2.3 2s-.3-.9-1.3-2-2-2-2.3-2 .3.9 1.3 2m374.5 2.5c-2.4 2.5-4.2 4.5-3.9 4.5s2.5-2 4.9-4.5 4.2-4.5 3.9-4.5-2.5 2-4.9 4.5m-113 1c1.3 1.4 2.6 2.5 2.8 2.5.3 0-.5-1.1-1.8-2.5s-2.6-2.5-2.8-2.5c-.3 0 .5 1.1 1.8 2.5m-255.5 2.5c1 1.1 2 2 2.3 2s-.3-.9-1.3-2-2-2-2.3-2 .3.9 1.3 2m229.5 5.4c0 .2.8 1 1.8 1.7 1.5 1.3 1.6 1.2.3-.4s-2.1-2.1-2.1-1.3m154.4 3.8-1.9 2.3 2.3-1.9c2.1-1.8 2.7-2.6 1.9-2.6-.2 0-1.2 1-2.3 2.2m-404.9 4.8c2.7 2.7 5.1 5 5.4 5s-1.7-2.3-4.4-5c-2.7-2.8-5.1-5-5.4-5s1.7 2.2 4.4 5m142 .2-4 4.3 4.3-4c3.9-3.6 4.7-4.5 3.9-4.5-.2 0-2.1 1.9-4.2 4.2m253.9 4-1.9 2.3 2.3-1.9c2.1-1.8 2.7-2.6 1.9-2.6-.2 0-1.2 1-2.3 2.2"/><path d="M1793.8 614.4c-5.7 2.1-8.5 4.2-11.6 8.8-2.3 3.6-2.7 5.2-2.7 11.4 0 6.4.3 7.7 3 11.6 5.2 7.3 13.8 10.9 21.5 8.8 4.5-1.2 11.3-6.8 13.5-11.1 3.9-7.4 2.6-16.6-3.2-23-6.2-6.8-13.5-9.1-20.5-6.5M1593 675.5c0 37.7-.3 57.5-1 57.5-.5 0-1-.4-1-.9 0-1.7-17.5-19.4-23.5-23.7-8.6-6.1-21.5-12-32.1-14.6-10.4-2.5-31.1-3-40.9-.9-41.4 8.7-73.7 40.9-82.2 82.1-2.2 10.4-2.1 33 .1 43.4 6.9 31.8 28.6 59.9 57 73.6 13.4 6.5 25.5 9.2 41.6 9.3 29.4.2 52.2-9.4 73.3-30.7 4.1-4.2 7.7-7.6 8.1-7.6.3 0 .6 7.6.6 17v17h24V618h-24zm-60.2 41.1c16.1 3.3 27.7 9.9 39.9 22.8 4.3 4.5 9.3 10.8 11.2 14 13.6 23 14.8 57.5 2.7 81.4-7.9 15.7-19.2 26.8-35.1 34.7-31.5 15.6-68.6 9.7-92.5-14.6-19.3-19.6-28-48.8-22.4-75.7 6.4-31.1 30.7-56.2 60.8-62.7 8.6-1.9 26.1-1.8 35.4.1m-291.3-24.5c-33 4.2-63.2 26.3-78.9 57.6-7.6 15.2-10.1 26.4-10.1 46.3 0 24.3 4.8 40.9 17.4 60 5.2 8 19.1 22.1 27.4 27.8 18.5 12.7 34.8 17.7 57.7 17.5 11.2-.1 15.2-.5 23.5-2.7 18.2-4.7 34.1-14.3 47.8-28.5 3.8-3.9 7.3-7.1 7.8-7.1s.9 7.5.9 17v17h24V696h-24v18.5c0 10.2-.4 18.5-.9 18.5s-1.6-1.1-2.5-2.5c-2.9-4.4-13.9-15.6-19.7-20.1-19.4-14.9-44.8-21.5-70.4-18.3m32.7 24.4c29.1 6.1 51.9 28.2 59.9 58 2.8 10.5 3.1 32.5.6 42.9-6.8 27.4-25.3 47.3-52.7 56.8-9.2 3.2-10 3.3-25.5 3.3-15.4 0-16.3-.1-24.7-3.1-26.5-9.5-45.5-30.3-52.9-58-3-11.3-3-28.8 0-40.4 4.4-16.6 14.3-32.6 26.8-43.2 9-7.5 23.3-14.4 35.4-16.7 7-1.4 25.8-1.2 33.1.4m462.3-24.3c-12.4 2.3-27.5 13.1-38.5 27.2-2.3 3.1-4.6 5.6-5.1 5.6s-.9-6.5-.9-14.5V696h-25v201h24.8l.5-56.3c.3-33.4.9-60 1.6-65.7 4.4-35.4 21.4-58.5 44.3-59.8 4.4-.3 8.3.1 11.2 1.1l4.5 1.5 6.1-9.4c3.3-5.2 6-9.8 6-10.3 0-1.3-9.2-5-15.1-6.1-6-1.1-7.6-1.1-14.4.2m50.5 104.3V897h25V696h-25z"/><path fill-opacity=".7" d="M1778.3 634.5c0 2.2.2 3 .4 1.7.2-1.2.2-3 0-4-.3-.9-.5.1-.4 2.3m-418.8 162c0 55.5.1 78.4.2 50.8.2-27.6.2-73 0-101-.1-27.9-.2-5.4-.2 50.2m332.9-86.5c0 8 .2 11.2.3 7.2.2-3.9.2-10.5 0-14.5-.1-3.9-.3-.7-.3 7.3m.7 76.6c0 1.1.3 1.4.6.6.3-.7.2-1.6-.1-1.9-.3-.4-.6.2-.5 1.3m-258 2c0 1.1.3 1.4.6.6.3-.7.2-1.6-.1-1.9-.3-.4-.6.2-.5 1.3m159 2c0 1.1.3 1.4.6.6.3-.7.2-1.6-.1-1.9-.3-.4-.6.2-.5 1.3m-442.9 5.4c0 1.9.2 2.7.5 1.7.2-.9.2-2.5 0-3.5-.3-.9-.5-.1-.5 1.8m442.9 7.6c0 1.1.3 1.4.6.6.3-.7.2-1.6-.1-1.9-.3-.4-.6.2-.5 1.3m98.4 48.9c0 24.7.1 34.7.2 22.2.2-12.6.2-32.8 0-45-.1-12.2-.2-2-.2 22.8"/><path fill-opacity=".5" d="M1813.5 619c1 1.1 2 2 2.3 2s-.3-.9-1.3-2-2-2-2.3-2 .3.9 1.3 2m-221.7 56c-.2 31.4 0 57 .5 57 .4 0 .7-25.7.7-57 0-31.4-.2-57-.5-57-.2 0-.6 25.7-.7 57m221.6-24.8-1.9 2.3 2.3-1.9c1.2-1.1 2.2-2.1 2.2-2.3 0-.8-.8-.2-2.6 1.9m-.9 146.3c0 55.5.1 78.4.2 50.8.2-27.6.2-73 0-101-.1-27.9-.2-5.4-.2 50.2m-107.1-87.3-2.9 3.3 3.3-2.9c3-2.8 3.7-3.6 2.9-3.6-.2 0-1.6 1.5-3.3 3.2m-128.4 6.1c0 .2 1.5 1.6 3.3 3.3l3.2 2.9-2.9-3.3c-2.8-3-3.6-3.7-3.6-2.9m-376.1 22.4c-1.3 1.6-1.2 1.7.4.4s2.1-2.1 1.3-2.1c-.2 0-1 .8-1.7 1.7m493.2 41.9c0 1.1.3 1.4.6.6.3-.7.2-1.6-.1-1.9-.3-.4-.6.2-.5 1.3m-543 7c0 1.1.3 1.4.6.6.3-.7.2-1.6-.1-1.9-.3-.4-.6.2-.5 1.3m184 2c0 1.1.3 1.4.6.6.3-.7.2-1.6-.1-1.9-.3-.4-.6.2-.5 1.3m-157.9 1.4c0 1.4.2 1.9.5 1.2.2-.6.2-1.8 0-2.5-.3-.6-.5-.1-.5 1.3m232.1 6c0 4.1.2 5.8.4 3.7.2-2 .2-5.4 0-7.5-.2-2-.4-.3-.4 3.8m283.9 0c0 1.9.2 2.7.5 1.7.2-.9.2-2.5 0-3.5-.3-.9-.5-.1-.5 1.8m-516.1 6.6c0 1.1.3 1.4.6.6.3-.7.2-1.6-.1-1.9-.3-.4-.6.2-.5 1.3m-26 3c0 1.1.3 1.4.6.6.3-.7.2-1.6-.1-1.9-.3-.4-.6.2-.5 1.3m184 0c0 1.1.3 1.4.6.6.3-.7.2-1.6-.1-1.9-.3-.4-.6.2-.5 1.3m121.9 46.7c0 .2 1.5 1.6 3.3 3.3l3.2 2.9-2.9-3.3c-2.8-3-3.6-3.7-3.6-2.9m135.4 28.2c0 9.3.2 13.3.3 8.8.2-4.5.2-12.2 0-17-.1-4.8-.3-1.2-.3 8.2m-5.5-11.8c-1.3 1.6-1.2 1.7.4.4.9-.7 1.7-1.5 1.7-1.7 0-.8-.8-.3-2.1 1.3m-404.9 3.8c1.3 1.4 2.6 2.5 2.8 2.5.3 0-.5-1.1-1.8-2.5s-2.6-2.5-2.8-2.5c-.3 0 .5 1.1 1.8 2.5m397.9 3.2c-1.3 1.6-1.2 1.7.4.4s2.1-2.1 1.3-2.1c-.2 0-1 .8-1.7 1.7"/><path fill-opacity=".2" d="M1777.3 634.5c0 2.2.2 3 .4 1.7.2-1.2.2-3 0-4-.3-.9-.5.1-.4 2.3m-416.8 162c0 55.5.1 78.4.2 50.8.2-27.6.2-73 0-101-.1-27.9-.2-5.4-.2 50.2m332.9-87c0 7.7.2 10.7.3 6.7.2-4 .2-10.3 0-14s-.3-.4-.3 7.3m-439.6 6.2c1.7.2 4.7.2 6.5 0 1.7-.2.3-.4-3.3-.4s-5 .2-3.2.4m258 0c1.7.2 4.7.2 6.5 0 1.7-.2.3-.4-3.3-.4s-5 .2-3.2.4m226.5 0c.9.2 2.5.2 3.5 0 .9-.3.1-.5-1.8-.5s-2.7.2-1.7.5m-44.2 70.9c0 1.1.3 1.4.6.6.3-.7.2-1.6-.1-1.9-.3-.4-.6.2-.5 1.3m-258 2c0 1.1.3 1.4.6.6.3-.7.2-1.6-.1-1.9-.3-.4-.6.2-.5 1.3m157 2c0 1.1.3 1.4.6.6.3-.7.2-1.6-.1-1.9-.3-.4-.6.2-.5 1.3m-442.9 5.4c0 1.9.2 2.7.5 1.7.2-.9.2-2.5 0-3.5-.3-.9-.5-.1-.5 1.8m442.9 7.6c0 1.1.3 1.4.6.6.3-.7.2-1.6-.1-1.9-.3-.4-.6.2-.5 1.3m100.4 48.9c0 24.7.1 34.7.2 22.2.2-12.6.2-32.8 0-45-.1-12.2-.2-2-.2 22.8m-439.7 25.2c1.8.2 4.5.2 6 0s0-.4-3.3-.4-4.5.2-2.7.4m258 0c1.8.2 4.5.2 6 0s0-.4-3.3-.4-4.5.2-2.7.4"/><path fill-opacity=".4" d="M1322 718.5c1.9 1.9 3.6 3.5 3.9 3.5s-1-1.6-2.9-3.5-3.6-3.5-3.9-3.5 1 1.6 2.9 3.5m-140.6 2.7-2.9 3.3 3.3-2.9c1.7-1.7 3.2-3.1 3.2-3.3 0-.8-.8-.1-3.6 2.9m401.6.2c0 .2.8 1 1.8 1.7 1.5 1.3 1.6 1.2.3-.4s-2.1-2.1-2.1-1.3m-385 130c0 .2.8 1 1.8 1.7 1.5 1.3 1.6 1.2.3-.4s-2.1-2.1-2.1-1.3m372.9 3.3-2.4 2.8 2.8-2.4c2.5-2.3 3.2-3.1 2.4-3.1-.2 0-1.4 1.2-2.8 2.7m-367.9 1.7c0 .2.8 1 1.8 1.7 1.5 1.3 1.6 1.2.3-.4s-2.1-2.1-2.1-1.3m-26 11c0 .2.8 1 1.8 1.7 1.5 1.3 1.6 1.2.3-.4s-2.1-2.1-2.1-1.3m148.5 4.8-4 4.3 4.3-4c3.9-3.6 4.7-4.5 3.9-4.5-.2 0-2.1 1.9-4.2 4.2"/><path fill="#8B8080" fill-opacity=".1" d="M1210.1 956.6c0 1.1.3 1.4.6.6.3-.7.2-1.6-.1-1.9-.3-.4-.6.2-.5 1.3m231 0c0 1.1.3 1.4.6.6.3-.7.2-1.6-.1-1.9-.3-.4-.6.2-.5 1.3m-209.9 3.4c0 1.9.2 2.7.5 1.7.2-.9.2-2.5 0-3.5-.3-.9-.5-.1-.5 1.8"/><path fill="#8B8080" fill-opacity=".5" d="M1488.4 948c0 12.9.2 18.2.3 11.7.2-6.4.2-17 0-23.5-.1-6.4-.3-1.1-.3 11.8m8-.5c0 12.6.2 17.7.3 11.2.2-6.5.2-16.8 0-23-.1-6.2-.3-.9-.3 11.8m-191 13c0 15.4.2 21.6.3 13.7.2-7.9.2-20.5 0-28-.1-7.5-.3-1.1-.3 14.3m-103.2-4c0 1.6.2 2.2.5 1.2.2-.9.2-2.3 0-3-.3-.6-.5.1-.5 1.8m182 0c0 1.6.2 2.2.5 1.2.2-.9.2-2.3 0-3-.3-.6-.5.1-.5 1.8m8 .5c0 1.4.2 1.9.5 1.2.2-.6.2-1.8 0-2.5-.3-.6-.5-.1-.5 1.3"/><path fill="#A28080" fill-opacity=".6" d="m1211.9 933.7-2.4 2.8 2.8-2.4c2.5-2.3 3.2-3.1 2.4-3.1-.2 0-1.4 1.2-2.8 2.7m186.5 6.5-1.9 2.3 2.3-1.9c2.1-1.8 2.7-2.6 1.9-2.6-.2 0-1.2 1-2.3 2.2m-189.3 16.4c0 1.1.3 1.4.6.6.3-.7.2-1.6-.1-1.9-.3-.4-.6.2-.5 1.3m233 0c0 1.1.3 1.4.6.6.3-.7.2-1.6-.1-1.9-.3-.4-.6.2-.5 1.3m-209.9 3.4c0 1.9.2 2.7.5 1.7.2-.9.2-2.5 0-3.5-.3-.9-.5-.1-.5 1.8m20.7 18.7c-1.3 1.6-1.2 1.7.4.4.9-.7 1.7-1.5 1.7-1.7 0-.8-.8-.3-2.1 1.3m187 0c-1.3 1.6-1.2 1.7.4.4.9-.7 1.7-1.5 1.7-1.7 0-.8-.8-.3-2.1 1.3"/><path fill="#A28080" fill-opacity=".7" d="M1317.8 962.7c1.7.2 4.7.2 6.5 0 1.7-.2.3-.4-3.3-.4s-5 .2-3.2.4m269.5 0c1.5.2 3.9.2 5.5 0 1.5-.2.2-.4-2.8-.4s-4.3.2-2.7.4m-349.5 1c2.8.2 7.6.2 10.5 0 2.8-.2.5-.3-5.3-.3s-8.1.1-5.2.3"/><path fill="#A28080" fill-opacity=".8" d="M1313.4 944c0 6.3.1 8.9.3 5.7.2-3.1.2-8.3 0-11.5-.2-3.1-.3-.5-.3 5.8m-97.5-5.3c-1.3 1.6-1.2 1.7.4.4.9-.7 1.7-1.5 1.7-1.7 0-.8-.8-.3-2.1 1.3m129.3 5.3c0 1.4.2 1.9.5 1.2.2-.6.2-1.8 0-2.5-.3-.6-.5-.1-.5 1.3m104 12.5c0 1.6.2 2.2.5 1.2.2-.9.2-2.3 0-3-.3-.6-.5.1-.5 1.8m-187.9 8.5c0 4.7.2 6.6.4 4.2.2-2.3.2-6.1 0-8.5-.2-2.3-.4-.4-.4 4.3m52.1-1.7c-.2.7-.3 6.7-.2 13.3l.3 11.9.5-13.3c.3-7.2.4-13.2.2-13.2-.1 0-.5.6-.8 1.3m-98.4 10.1c0 .2.8 1 1.8 1.7 1.5 1.3 1.6 1.2.3-.4s-2.1-2.1-2.1-1.3"/><path fill="#A28080" d="M1227.9 926.1c-6 .9-10.1 3.1-15.1 8.1-15.1 15.1-11 41.2 7.9 50.4 6.3 3.1 14.7 3.7 20.4 1.4 5.3-2.1 11.8-7.1 14-10.7 1.2-1.9 2.9-3.3 4-3.3 1.7 0 1.9-.8 1.9-7.5V957h-28v6h11.1c11 0 11 0 10.4 2.2-2.9 9.6-11.8 15.8-22.7 15.8-8.4 0-16-4.6-20.1-12.4-1.7-3.2-2.2-5.8-2.2-12.1 0-7 .4-8.6 2.8-12.7 4.6-7.8 11.5-11.8 20.7-11.8 5.5 0 14.3 4 16.7 7.6 1.1 1.8 2.4 2.4 5 2.4h3.5l-2.7-3.8c-6.9-9.2-17-13.7-27.6-12.1m75.1 1.3c0 1.4.7 3.1 1.5 4 1.3 1.2 1.5 5.9 1.5 29V988h7v-26.1l7.6.3 7.5.3 5 12.7 5.1 12.8h6.8l-1.9-4.8c-1-2.6-3.5-8.7-5.5-13.6l-3.6-8.9 4-3.5c5.1-4.3 7-8 7-13.3 0-8.6-7.1-16-17.2-17.9-2.8-.6-9.5-1-14.9-1-9.8 0-9.9 0-9.9 2.4m29 6.4c2 1.1 4.3 3.4 5.4 5.6 1.6 3.2 1.7 4.4.7 7.6-1.9 6.3-5.9 8.4-16.3 8.8l-8.8.4V932h7.8c5.6 0 8.7.5 11.2 1.8m79.8-7.8c-6.3 1.1-14.3 5.6-18.5 10.5-5.4 6.2-7.5 11.9-7.6 20.1-.1 12.5 6.7 22.5 19.1 28.2 15.6 7.1 34.5-.4 41.9-16.5 2.2-4.8 2.5-6.5 2.1-13.2-.3-4.6-1.2-9-2.3-11.1-6.7-13-20.7-20.3-34.7-18m17.8 8.8c14 7.2 17.8 25.4 7.7 37.2-12.1 14.1-35.9 11.2-43.4-5.4-2.4-5.4-2.5-14.8 0-20.1 2.1-4.8 9.6-11.7 14.3-13.3 5.1-1.7 16.6-.9 21.4 1.6m59.4 12.4c0 12.3.5 24 1 26 3.9 13.8 22.4 18.8 33.3 8.9 6.4-5.8 6.7-7.1 6.7-33.6V925h-6v23.2c0 16.6-.4 24-1.3 25.8-4.4 8.7-19.1 9.5-25.2 1.4-1.2-1.5-1.4-6.5-1.5-26.2V925h-7zm85-19.9c0 1.4.7 3.2 1.5 4.1 1.3 1.2 1.5 5.9 1.5 29V988h6v-26h7.5c7.9 0 13.3-1.8 16.6-5.6 8.3-9.4 5.6-23-5.6-28.8-3.1-1.6-6.4-2.1-15.7-2.4l-11.8-.4zm25.9 6.1c3.8 2 6.1 5.8 6.1 10.1 0 8.4-5.4 12.5-16.4 12.5h-6.6v-24h7c4.2 0 8.2.6 9.9 1.4"/><path fill="#8B8080" fill-opacity=".4" d="M1216 973.4c0 .2.8 1 1.8 1.7 1.5 1.3 1.6 1.2.3-.4s-2.1-2.1-2.1-1.3"/><path fill="#8B8080" fill-opacity=".2" d="m1210.4 934.2-1.9 2.3 2.3-1.9c2.1-1.8 2.7-2.6 1.9-2.6-.2 0-1.2 1-2.3 2.2m189.5 5.5-2.4 2.8 2.8-2.4c1.5-1.4 2.7-2.6 2.7-2.8 0-.8-.8-.1-3.1 2.4m41 39c-1.3 1.6-1.2 1.7.4.4.9-.7 1.7-1.5 1.7-1.7 0-.8-.8-.3-2.1 1.3m-188 1c-1.3 1.6-1.2 1.7.4.4s2.1-2.1 1.3-2.1c-.2 0-1 .8-1.7 1.7m-21.1 1c.7.3 1.6.2 1.9-.1.4-.3-.2-.6-1.3-.5-1.1 0-1.4.3-.6.6m277 0c.6.2 1.8.2 2.5 0 .6-.3.1-.5-1.3-.5s-1.9.2-1.2.5"/><path fill="#A28080" fill-opacity=".9" d="M1334 935.4c0 .2.8 1 1.8 1.7 1.5 1.3 1.6 1.2.3-.4s-2.1-2.1-2.1-1.3m-87 2c0 .2.8 1 1.8 1.7 1.5 1.3 1.6 1.2.3-.4s-2.1-2.1-2.1-1.3m87.9 14.3c-1.3 1.6-1.2 1.7.4.4.9-.7 1.7-1.5 1.7-1.7 0-.8-.8-.3-2.1 1.3m5 4c-1.3 1.6-1.2 1.7.4.4.9-.7 1.7-1.5 1.7-1.7 0-.8-.8-.3-2.1 1.3m-92 19-2.4 2.8 2.8-2.4c1.5-1.4 2.7-2.6 2.7-2.8 0-.8-.8-.1-3.1 2.4m276.5 6.5-1.9 2.3 2.3-1.9c1.2-1.1 2.2-2.1 2.2-2.3 0-.8-.8-.2-2.6 1.9"/><path fill="#A28080" fill-opacity=".2" d="M1522.4 947.5c0 12.6.2 17.7.3 11.2.2-6.5.2-16.8 0-23-.1-6.2-.3-.9-.3 11.8m9 .5c0 12.9.2 18.2.3 11.7.2-6.4.2-17 0-23.5-.1-6.4-.3-1.1-.3 11.8m75.6-17.6c0 .2.8 1 1.8 1.7 1.5 1.3 1.6 1.2.3-.4s-2.1-2.1-2.1-1.3m-31.6 30.1c0 15.4.2 21.6.3 13.7.2-7.9.2-20.5 0-28-.1-7.5-.3-1.1-.3 14.3m9-16.5c0 6.3.1 8.9.3 5.7.2-3.1.2-8.3 0-11.5-.2-3.1-.3-.5-.3 5.8m-192.5-8.3c-1.3 1.6-1.2 1.7.4.4.9-.7 1.7-1.5 1.7-1.7 0-.8-.8-.3-2.1 1.3m41.1 2.7c0 .2.8 1 1.8 1.7 1.5 1.3 1.6 1.2.3-.4s-2.1-2.1-2.1-1.3m-222.9 15.2c0 1.1.3 1.4.6.6.3-.7.2-1.6-.1-1.9-.3-.4-.6.2-.5 1.3m231 0c0 1.1.3 1.4.6.6.3-.7.2-1.6-.1-1.9-.3-.4-.6.2-.5 1.3m0 6c0 1.1.3 1.4.6.6.3-.7.2-1.6-.1-1.9-.3-.4-.6.2-.5 1.3m143.3 15.9c0 7.1.1 9.9.3 6.2s.2-9.6 0-13-.3-.4-.3 6.8m-150-2.3-1.9 2.3 2.3-1.9c2.1-1.8 2.7-2.6 1.9-2.6-.2 0-1.2 1-2.3 2.2m-41.4 5.3c1.3 1.4 2.6 2.5 2.8 2.5.3 0-.5-1.1-1.8-2.5s-2.6-2.5-2.8-2.5c-.3 0 .5 1.1 1.8 2.5m100 3c1.3 1.4 2.6 2.5 2.8 2.5.3 0-.5-1.1-1.8-2.5s-2.6-2.5-2.8-2.5c-.3 0 .5 1.1 1.8 2.5"/><path fill="#A28080" fill-opacity=".4" d="M1231.3 932.7c.9.2 2.3.2 3 0 .6-.3-.1-.5-1.8-.5-1.6 0-2.2.2-1.2.5m86.5 0c1.8.2 4.5.2 6 0s0-.4-3.3-.4-4.5.2-2.7.4m98.5 0c.9.2 2.3.2 3 0 .6-.3-.1-.5-1.8-.5-1.6 0-2.2.2-1.2.5m171 0c1.5.2 3.9.2 5.5 0 1.5-.2.2-.4-2.8-.4s-4.3.2-2.7.4m-270 23c1.5.2 3.9.2 5.5 0 1.5-.2.2-.4-2.8-.4s-4.3.2-2.7.4m270 0c1.5.2 3.7.2 5 0 1.2-.2 0-.4-2.8-.4-2.7 0-3.8.2-2.2.4m-347.5 1c3.9.2 10.5.2 14.5 0 3.9-.1.7-.3-7.3-.3s-11.2.2-7.2.3"/><path fill="#8B8080" fill-opacity=".8" d="M1606 930.4c0 .2.8 1 1.8 1.7 1.5 1.3 1.6 1.2.3-.4s-2.1-2.1-2.1-1.3m-172 8c0 .2.8 1 1.8 1.7 1.5 1.3 1.6 1.2.3-.4s-2.1-2.1-2.1-1.3m1.4 34.8-1.9 2.3 2.3-1.9c2.1-1.8 2.7-2.6 1.9-2.6-.2 0-1.2 1-2.3 2.2m-41.9 4.8c1 1.1 2 2 2.3 2s-.3-.9-1.3-2-2-2-2.3-2 .3.9 1.3 2m99.5 2.4c0 .2.8 1 1.8 1.7 1.5 1.3 1.6 1.2.3-.4s-2.1-2.1-2.1-1.3"/><path fill="#A28080" fill-opacity=".5" d="m1247.4 974.2-1.9 2.3 2.3-1.9c2.1-1.8 2.7-2.6 1.9-2.6-.2 0-1.2 1-2.3 2.2m277.5 7.5c-1.3 1.6-1.2 1.7.4.4.9-.7 1.7-1.5 1.7-1.7 0-.8-.8-.3-2.1 1.3"/><path fill="#8B8080" fill-opacity=".7" d="M1523.4 947.5c0 12.6.2 17.7.3 11.2.2-6.5.2-16.8 0-23-.1-6.2-.3-.9-.3 11.8m7 .5c0 12.9.2 18.2.3 11.7.2-6.4.2-17 0-23.5-.1-6.4-.3-1.1-.3 11.8m46 12.5c0 15.4.2 21.6.3 13.7.2-7.9.2-20.5 0-28-.1-7.5-.3-1.1-.3 14.3m7-16.5c0 6.3.1 8.9.3 5.7.2-3.1.2-8.3 0-11.5-.2-3.1-.3-.5-.3 5.8m0 31.5c0 7.1.1 9.9.3 6.2s.2-9.6 0-13-.3-.4-.3 6.8"/><path fill="#A28080" fill-opacity=".3" d="M1314.4 944c0 6.3.1 8.9.3 5.7.2-3.1.2-8.3 0-11.5-.2-3.1-.3-.5-.3 5.8m135.7 12.6c0 1.1.3 1.4.6.6.3-.7.2-1.6-.1-1.9-.3-.4-.6.2-.5 1.3m-187.7 8.9c0 4.9.1 7.1.3 4.8s.2-6.4 0-9-.3-.8-.3 4.2m52 10c0 7.1.1 9.9.3 6.2s.2-9.6 0-13-.3-.4-.3 6.8"/></svg>